<svg width="229" height="89" viewBox="0 0 229 89" fill="none" xmlns="http://www.w3.org/2000/svg">
<path d="M73.8969 8.05L73.6569 8.95H75.7419L75.5169 8.05C75.3869 7.56 75.2519 7.04 75.1119 6.49C74.9819 5.94 74.8519 5.41 74.7219 4.9H74.6619C74.5419 5.42 74.4169 5.955 74.2869 6.505C74.1669 7.045 74.0369 7.56 73.8969 8.05ZM70.3569 13L73.4169 3.22H76.0719L79.1319 13H76.7919L76.1919 10.675H73.2069L72.6069 13H70.3569ZM80.7255 13V3.22H84.2505C84.9405 3.22 85.5705 3.315 86.1405 3.505C86.7105 3.685 87.1655 3.995 87.5055 4.435C87.8455 4.875 88.0155 5.485 88.0155 6.265C88.0155 6.985 87.8555 7.58 87.5355 8.05C87.2255 8.51 86.8055 8.855 86.2755 9.085L88.4955 13H86.0205L84.1455 9.475H82.9305V13H80.7255ZM82.9305 7.72H84.0705C84.6505 7.72 85.0905 7.6 85.3905 7.36C85.7005 7.11 85.8555 6.745 85.8555 6.265C85.8555 5.785 85.7005 5.45 85.3905 5.26C85.0905 5.07 84.6505 4.975 84.0705 4.975H82.9305V7.72ZM94.4247 13.18C93.5447 13.18 92.7697 12.975 92.0997 12.565C91.4397 12.155 90.9197 11.57 90.5397 10.81C90.1697 10.04 89.9847 9.125 89.9847 8.065C89.9847 6.995 90.1697 6.09 90.5397 5.35C90.9197 4.6 91.4397 4.03 92.0997 3.64C92.7697 3.24 93.5447 3.04 94.4247 3.04C95.3047 3.04 96.0747 3.24 96.7347 3.64C97.4047 4.03 97.9247 4.6 98.2947 5.35C98.6747 6.1 98.8647 7.005 98.8647 8.065C98.8647 9.125 98.6747 10.04 98.2947 10.81C97.9247 11.57 97.4047 12.155 96.7347 12.565C96.0747 12.975 95.3047 13.18 94.4247 13.18ZM94.4247 11.275C95.0947 11.275 95.6247 10.985 96.0147 10.405C96.4047 9.825 96.5997 9.045 96.5997 8.065C96.5997 7.085 96.4047 6.32 96.0147 5.77C95.6247 5.22 95.0947 4.945 94.4247 4.945C93.7547 4.945 93.2247 5.22 92.8347 5.77C92.4447 6.32 92.2497 7.085 92.2497 8.065C92.2497 9.045 92.4447 9.825 92.8347 10.405C93.2247 10.985 93.7547 11.275 94.4247 11.275ZM101.229 13V3.22H103.644L105.219 7.57C105.319 7.85 105.414 8.145 105.504 8.455C105.594 8.765 105.689 9.07 105.789 9.37H105.849C105.949 9.07 106.039 8.765 106.119 8.455C106.209 8.145 106.304 7.85 106.404 7.57L107.949 3.22H110.349V13H108.339V9.415C108.339 9.095 108.354 8.74 108.384 8.35C108.424 7.95 108.464 7.55 108.504 7.15C108.554 6.75 108.594 6.395 108.624 6.085H108.564L107.769 8.41L106.374 12.145H105.159L103.764 8.41L102.984 6.085H102.924C102.964 6.395 103.004 6.75 103.044 7.15C103.084 7.55 103.119 7.95 103.149 8.35C103.189 8.74 103.209 9.095 103.209 9.415V13H101.229ZM113.179 13V3.22H119.299V5.08H115.384V7.045H118.714V8.89H115.384V11.14H119.449V13H113.179ZM121.922 13V3.22H124.187L126.737 8.08L127.697 10.24H127.757C127.717 9.72 127.662 9.14 127.592 8.5C127.522 7.86 127.487 7.25 127.487 6.67V3.22H129.587V13H127.322L124.772 8.125L123.812 5.995H123.752C123.802 6.535 123.857 7.115 123.917 7.735C123.987 8.355 124.022 8.955 124.022 9.535V13H121.922ZM134.718 8.05L134.478 8.95H136.563L136.338 8.05C136.208 7.56 136.073 7.04 135.933 6.49C135.803 5.94 135.673 5.41 135.543 4.9H135.483C135.363 5.42 135.238 5.955 135.108 6.505C134.988 7.045 134.858 7.56 134.718 8.05ZM131.178 13L134.238 3.22H136.893L139.953 13H137.613L137.013 10.675H134.028L133.428 13H131.178ZM145.72 13.18C144.83 13.18 144.02 12.99 143.29 12.61C142.57 12.23 141.995 11.67 141.565 10.93C141.145 10.18 140.935 9.26 140.935 8.17C140.935 7.09 141.15 6.17 141.58 5.41C142.02 4.64 142.6 4.055 143.32 3.655C144.04 3.245 144.835 3.04 145.705 3.04C146.415 3.04 147.025 3.17 147.535 3.43C148.045 3.69 148.46 3.985 148.78 4.315L147.625 5.725C147.375 5.505 147.11 5.32 146.83 5.17C146.55 5.02 146.2 4.945 145.78 4.945C145.02 4.945 144.4 5.225 143.92 5.785C143.44 6.345 143.2 7.115 143.2 8.095C143.2 9.095 143.43 9.875 143.89 10.435C144.35 10.995 145.035 11.275 145.945 11.275C146.145 11.275 146.34 11.25 146.53 11.2C146.72 11.15 146.875 11.075 146.995 10.975V9.295H145.375V7.495H148.945V11.995C148.605 12.325 148.15 12.605 147.58 12.835C147.02 13.065 146.4 13.18 145.72 13.18ZM151.49 13V3.22H157.61V5.08H153.695V7.045H157.025V8.89H153.695V11.14H157.76V13H151.49Z" fill="#252525"/>
<path d="M17.7777 30V21.472H22.6917V22.382H18.8567V30H17.7777ZM24.7073 30V21.472H29.6213V22.382H25.7863V25.06H29.0233V25.983H25.7863V29.077H29.7513V30H24.7073ZM31.5758 30.156C31.4371 30.156 31.3114 30.1473 31.1988 30.13C31.0861 30.1127 30.9691 30.0823 30.8478 30.039L31.0688 29.038C31.1988 29.09 31.3201 29.116 31.4328 29.116C31.5888 29.116 31.7318 29.0683 31.8618 28.973C31.9918 28.869 32.1174 28.6523 32.2388 28.323C32.3688 27.9937 32.4988 27.4953 32.6288 26.828C32.8021 25.9353 32.9668 25.0557 33.1228 24.189C33.2788 23.3137 33.4391 22.408 33.6038 21.472H37.8678V30H36.7888V22.382H34.4488C34.3101 23.162 34.1758 23.929 34.0458 24.683C33.9244 25.437 33.7901 26.191 33.6428 26.945C33.4868 27.8117 33.3134 28.479 33.1228 28.947C32.9321 29.4063 32.7111 29.7227 32.4598 29.896C32.2171 30.0693 31.9224 30.156 31.5758 30.156ZM40.6613 30V21.472H41.7403V24.969H43.3133C43.9373 24.969 44.4833 25.0513 44.9513 25.216C45.4279 25.3807 45.7963 25.6407 46.0563 25.996C46.3249 26.3427 46.4593 26.802 46.4593 27.374C46.4593 28.284 46.1733 28.9513 45.6013 29.376C45.0379 29.792 44.2796 30 43.3263 30H40.6613ZM41.7403 29.116H43.1833C43.9026 29.116 44.4486 28.9817 44.8213 28.713C45.2026 28.4443 45.3933 28.0067 45.3933 27.4C45.3933 26.8627 45.2069 26.4683 44.8343 26.217C44.4616 25.9657 43.9026 25.84 43.1573 25.84H41.7403V29.116ZM48.0203 27.153V26.334H51.0103V27.153H48.0203ZM53.1494 30V21.472H54.2284V25.073H55.6974L56.8934 22.902C57.1361 22.4687 57.3527 22.1393 57.5434 21.914C57.7427 21.68 57.9421 21.524 58.1414 21.446C58.3407 21.3593 58.5661 21.316 58.8174 21.316C58.9994 21.316 59.1554 21.342 59.2854 21.394L59.1034 22.395C59.0427 22.3777 58.9864 22.369 58.9344 22.369C58.8824 22.3603 58.8347 22.356 58.7914 22.356C58.6701 22.356 58.5574 22.382 58.4534 22.434C58.3494 22.4773 58.2367 22.577 58.1154 22.733C58.0027 22.889 57.8597 23.123 57.6864 23.435L56.5554 25.463L59.4934 30H58.3104L55.6844 25.957H54.2284V30H53.1494ZM64.1644 30.156C63.4538 30.156 62.8211 29.974 62.2664 29.61C61.7204 29.246 61.2914 28.7303 60.9794 28.063C60.6761 27.3957 60.5244 26.607 60.5244 25.697C60.5244 24.787 60.6761 24.007 60.9794 23.357C61.2914 22.6983 61.7204 22.1957 62.2664 21.849C62.8211 21.4937 63.4538 21.316 64.1644 21.316C64.8838 21.316 65.5164 21.4937 66.0624 21.849C66.6084 22.1957 67.0374 22.6983 67.3494 23.357C67.6615 24.007 67.8175 24.787 67.8175 25.697C67.8175 26.607 67.6615 27.3957 67.3494 28.063C67.0374 28.7303 66.6084 29.246 66.0624 29.61C65.5164 29.974 64.8838 30.156 64.1644 30.156ZM64.1644 29.207C64.6758 29.207 65.1178 29.064 65.4904 28.778C65.8718 28.4833 66.1664 28.076 66.3745 27.556C66.5825 27.0273 66.6865 26.4077 66.6865 25.697C66.6865 24.6397 66.4568 23.8033 65.9974 23.188C65.5381 22.5727 64.9271 22.265 64.1644 22.265C63.4018 22.265 62.7908 22.5727 62.3314 23.188C61.8721 23.8033 61.6424 24.6397 61.6424 25.697C61.6424 26.4077 61.7464 27.0273 61.9544 27.556C62.1624 28.076 62.4571 28.4833 62.8384 28.778C63.2198 29.064 63.6618 29.207 64.1644 29.207ZM70.1063 30V21.472H71.1853V25.047H75.1503V21.472H76.2423V30H75.1503V25.983H71.1853V30H70.1063ZM84.8137 32.444V30H79.0417V21.472H80.1207V29.077H83.8517V21.472H84.9307V29.077H85.8797V29.727L85.7627 32.444H84.8137ZM87.736 30V21.472H92.65V22.382H88.815V25.06H92.052V25.983H88.815V29.077H92.78V30H87.736ZM95.0465 30V21.472H96.1255V25.047H100.09V21.472H101.182V30H100.09V25.983H96.1255V30H95.0465ZM105.75 30V22.382H103.176V21.472H109.416V22.382H106.842V30H105.75ZM111.407 30V21.472H113.838C114.479 21.472 115.038 21.55 115.515 21.706C115.991 21.862 116.364 22.1263 116.633 22.499C116.901 22.863 117.036 23.357 117.036 23.981C117.036 24.8737 116.745 25.5367 116.165 25.97C115.584 26.4033 114.826 26.62 113.89 26.62H112.486V30H111.407ZM112.486 25.736H113.76C114.505 25.736 115.055 25.5973 115.411 25.32C115.775 25.034 115.957 24.5877 115.957 23.981C115.957 23.3657 115.766 22.941 115.385 22.707C115.012 22.4643 114.453 22.343 113.708 22.343H112.486V25.736ZM120.046 25.229L119.643 26.529H122.204L121.801 25.229C121.645 24.7523 121.498 24.28 121.359 23.812C121.221 23.3353 121.082 22.85 120.943 22.356H120.891C120.761 22.85 120.627 23.3353 120.488 23.812C120.35 24.28 120.202 24.7523 120.046 25.229ZM117.446 30L120.332 21.472H121.554L124.44 30H123.283L122.477 27.4H119.37L118.551 30H117.446ZM127.161 30V22.382H124.587V21.472H130.827V22.382H128.253V30H127.161ZM137.604 26.191C137.465 26.9103 137.318 27.504 137.162 27.972C137.015 28.44 136.846 28.8083 136.655 29.077H140.62V22.382H138.241C138.154 22.8673 138.081 23.3093 138.02 23.708C137.959 24.098 137.894 24.488 137.825 24.878C137.764 25.268 137.691 25.7057 137.604 26.191ZM136.109 30V32.444H135.16L135.043 29.727V29.077H135.433C135.554 29.025 135.676 28.9037 135.797 28.713C135.927 28.5223 136.061 28.2147 136.2 27.79C136.339 27.3567 136.477 26.763 136.616 26.009C136.72 25.4457 136.811 24.9387 136.889 24.488C136.967 24.0287 137.045 23.565 137.123 23.097C137.21 22.6203 137.301 22.0787 137.396 21.472H141.712V29.077H142.661V29.727L142.544 32.444H141.595V30H136.109ZM144.534 30.156C144.395 30.156 144.269 30.1473 144.157 30.13C144.044 30.1127 143.927 30.0823 143.806 30.039L144.027 29.038C144.157 29.09 144.278 29.116 144.391 29.116C144.547 29.116 144.69 29.0683 144.82 28.973C144.95 28.869 145.075 28.6523 145.197 28.323C145.327 27.9937 145.457 27.4953 145.587 26.828C145.76 25.9353 145.925 25.0557 146.081 24.189C146.237 23.3137 146.397 22.408 146.562 21.472H150.826V30H149.747V22.382H147.407C147.268 23.162 147.134 23.929 147.004 24.683C146.882 25.437 146.748 26.191 146.601 26.945C146.445 27.8117 146.271 28.479 146.081 28.947C145.89 29.4063 145.669 29.7227 145.418 29.896C145.175 30.0693 144.88 30.156 144.534 30.156ZM157.766 30V26.399H156.193L153.983 30H152.735L155.114 26.282C154.559 26.1347 154.1 25.866 153.736 25.476C153.372 25.086 153.19 24.5487 153.19 23.864C153.19 23.2747 153.316 22.8067 153.567 22.46C153.827 22.1047 154.182 21.8533 154.633 21.706C155.084 21.55 155.599 21.472 156.18 21.472H158.845V30H157.766ZM156.336 25.515H157.766V22.343H156.336C155.677 22.343 155.166 22.4557 154.802 22.681C154.447 22.9063 154.269 23.3007 154.269 23.864C154.269 24.4187 154.447 24.8347 154.802 25.112C155.166 25.3807 155.677 25.515 156.336 25.515ZM167.922 30.156C167.211 30.156 166.574 29.9827 166.011 29.636C165.456 29.2807 165.014 28.7737 164.685 28.115C164.364 27.4563 164.204 26.6633 164.204 25.736C164.204 24.8173 164.369 24.0287 164.698 23.37C165.027 22.7113 165.478 22.2043 166.05 21.849C166.622 21.4937 167.268 21.316 167.987 21.316C168.507 21.316 168.966 21.4243 169.365 21.641C169.764 21.849 170.084 22.0917 170.327 22.369L169.742 23.071C169.517 22.8283 169.261 22.6333 168.975 22.486C168.689 22.3387 168.364 22.265 168 22.265C167.463 22.265 166.99 22.408 166.583 22.694C166.184 22.9713 165.872 23.3657 165.647 23.877C165.43 24.3883 165.322 24.9993 165.322 25.71C165.322 26.4207 165.43 27.0403 165.647 27.569C165.864 28.089 166.167 28.492 166.557 28.778C166.956 29.064 167.424 29.207 167.961 29.207C168.368 29.207 168.732 29.1203 169.053 28.947C169.374 28.7737 169.668 28.5397 169.937 28.245L170.535 28.921C170.197 29.311 169.816 29.6143 169.391 29.831C168.966 30.0477 168.477 30.156 167.922 30.156ZM174.119 30V22.382H171.545V21.472H177.785V22.382H175.211V30H174.119ZM179.776 30V21.472H180.842V25.879C180.842 26.3297 180.825 26.789 180.79 27.257C180.764 27.7163 180.738 28.1627 180.712 28.596H180.764L181.687 26.854L184.82 21.472H185.964V30H184.898V25.541C184.898 25.0903 184.911 24.6397 184.937 24.189C184.972 23.7383 185.002 23.3007 185.028 22.876H184.976L184.053 24.618L180.92 30H179.776ZM188.762 30V21.472H191.193C191.835 21.472 192.394 21.55 192.87 21.706C193.347 21.862 193.72 22.1263 193.988 22.499C194.257 22.863 194.391 23.357 194.391 23.981C194.391 24.8737 194.101 25.5367 193.52 25.97C192.94 26.4033 192.181 26.62 191.245 26.62H189.841V30H188.762ZM189.841 25.736H191.115C191.861 25.736 192.411 25.5973 192.766 25.32C193.13 25.034 193.312 24.5877 193.312 23.981C193.312 23.3657 193.122 22.941 192.74 22.707C192.368 22.4643 191.809 22.343 191.063 22.343H189.841V25.736ZM196.581 30V21.472H197.66V25.073H199.129L200.325 22.902C200.567 22.4687 200.784 22.1393 200.975 21.914C201.174 21.68 201.373 21.524 201.573 21.446C201.772 21.3593 201.997 21.316 202.249 21.316C202.431 21.316 202.587 21.342 202.717 21.394L202.535 22.395C202.474 22.3777 202.418 22.369 202.366 22.369C202.314 22.3603 202.266 22.356 202.223 22.356C202.101 22.356 201.989 22.382 201.885 22.434C201.781 22.4773 201.668 22.577 201.547 22.733C201.434 22.889 201.291 23.123 201.118 23.435L199.987 25.463L202.925 30H201.742L199.116 25.957H197.66V30H196.581ZM204.577 30V21.472H205.643V25.879C205.643 26.3297 205.625 26.789 205.591 27.257C205.565 27.7163 205.539 28.1627 205.513 28.596H205.565L206.488 26.854L209.621 21.472H210.765V30H209.699V25.541C209.699 25.0903 209.712 24.6397 209.738 24.189C209.772 23.7383 209.803 23.3007 209.829 22.876H209.777L208.854 24.618L205.721 30H204.577ZM4.18829 43.156C3.60762 43.156 3.08329 43.039 2.61529 42.805C2.15596 42.571 1.79196 42.1853 1.52329 41.648C1.25462 41.1107 1.12029 40.387 1.12029 39.477V34.472H2.19929V39.503C2.19929 40.1877 2.28596 40.7293 2.45929 41.128C2.64129 41.518 2.87962 41.7953 3.17429 41.96C3.47762 42.1247 3.81562 42.207 4.18829 42.207C4.56962 42.207 4.91196 42.1247 5.21529 41.96C5.51862 41.7953 5.75696 41.518 5.93029 41.128C6.11229 40.7293 6.20329 40.1877 6.20329 39.503V34.472H7.24329V39.477C7.24329 40.387 7.10896 41.1107 6.84029 41.648C6.57162 42.1853 6.20762 42.571 5.74829 42.805C5.28896 43.039 4.76896 43.156 4.18829 43.156ZM9.99319 43V34.472H11.1112L14.1922 39.828L15.1152 41.596H15.1672C15.1412 41.1627 15.1109 40.7163 15.0762 40.257C15.0502 39.789 15.0372 39.3297 15.0372 38.879V34.472H16.0642V43H14.9462L11.8522 37.631L10.9292 35.876H10.8772C10.9119 36.3007 10.9422 36.7383 10.9682 37.189C11.0029 37.6397 11.0202 38.0903 11.0202 38.541V43H9.99319ZM18.8652 43V34.472H19.9442V43H18.8652ZM24.2952 43L21.5652 34.472H22.7222L24.0872 39.074C24.2432 39.5767 24.3776 40.049 24.4902 40.491C24.6116 40.9243 24.7546 41.3923 24.9192 41.895H24.9712C25.1272 41.3923 25.2659 40.9243 25.3872 40.491C25.5086 40.049 25.6429 39.5767 25.7902 39.074L27.1552 34.472H28.2602L25.5562 43H24.2952ZM29.8807 43V34.472H34.7947V35.382H30.9597V38.06H34.1967V38.983H30.9597V42.077H34.9247V43H29.8807ZM37.1911 43V34.472H39.8561C40.4368 34.472 40.9525 34.55 41.4031 34.706C41.8538 34.8533 42.2048 35.1047 42.4561 35.46C42.7161 35.8067 42.8461 36.2747 42.8461 36.864C42.8461 37.5227 42.6728 38.0557 42.3261 38.463C41.9795 38.8617 41.5115 39.1347 40.9221 39.282L43.0931 43H41.8711L39.8171 39.399H38.2701V43H37.1911ZM38.2701 38.515H39.7001C40.3675 38.515 40.8788 38.3807 41.2341 38.112C41.5895 37.8347 41.7671 37.4187 41.7671 36.864C41.7671 36.3007 41.5895 35.9063 41.2341 35.681C40.8788 35.4557 40.3675 35.343 39.7001 35.343H38.2701V38.515ZM47.2358 43.156C46.6378 43.156 46.0831 43.0433 45.5718 42.818C45.0604 42.584 44.6184 42.2763 44.2458 41.895L44.8958 41.141C45.1991 41.4617 45.5544 41.7217 45.9618 41.921C46.3778 42.1117 46.8068 42.207 47.2488 42.207C47.8121 42.207 48.2498 42.0813 48.5618 41.83C48.8738 41.57 49.0298 41.232 49.0298 40.816C49.0298 40.5213 48.9648 40.2873 48.8348 40.114C48.7134 39.9407 48.5444 39.7933 48.3278 39.672C48.1198 39.5507 47.8814 39.4293 47.6128 39.308L46.3908 38.775C46.1221 38.6623 45.8534 38.515 45.5848 38.333C45.3248 38.151 45.1038 37.917 44.9218 37.631C44.7484 37.345 44.6618 36.994 44.6618 36.578C44.6618 36.1447 44.7744 35.759 44.9998 35.421C45.2338 35.0743 45.5544 34.8057 45.9618 34.615C46.3691 34.4157 46.8284 34.316 47.3398 34.316C47.8511 34.316 48.3234 34.4157 48.7568 34.615C49.1901 34.8057 49.5584 35.057 49.8618 35.369L49.2768 36.071C49.0168 35.8197 48.7264 35.6247 48.4058 35.486C48.0938 35.3387 47.7384 35.265 47.3398 35.265C46.8631 35.265 46.4774 35.3777 46.1828 35.603C45.8968 35.8283 45.7538 36.1317 45.7538 36.513C45.7538 36.7817 45.8231 37.007 45.9618 37.189C46.1091 37.3623 46.2911 37.5053 46.5078 37.618C46.7244 37.7307 46.9454 37.8347 47.1708 37.93L48.3798 38.45C48.7091 38.5887 49.0038 38.7577 49.2638 38.957C49.5324 39.1477 49.7448 39.386 49.9008 39.672C50.0568 39.9493 50.1348 40.3003 50.1348 40.725C50.1348 41.1757 50.0178 41.5873 49.7838 41.96C49.5498 42.324 49.2161 42.6143 48.7828 42.831C48.3494 43.0477 47.8338 43.156 47.2358 43.156ZM53.7381 38.229L53.3351 39.529H55.8961L55.4931 38.229C55.3371 37.7523 55.1898 37.28 55.0511 36.812C54.9124 36.3353 54.7738 35.85 54.6351 35.356H54.5831C54.4531 35.85 54.3188 36.3353 54.1801 36.812C54.0414 37.28 53.8941 37.7523 53.7381 38.229ZM51.1381 43L54.0241 34.472H55.2461L58.1321 43H56.9751L56.1691 40.4H53.0621L52.2431 43H51.1381ZM59.7954 43V34.472H60.8744V42.077H64.6054V43H59.7954ZM69.6302 43V34.472H71.7622C73.0795 34.472 74.0805 34.8403 74.7652 35.577C75.4499 36.305 75.7922 37.345 75.7922 38.697C75.7922 40.0577 75.4499 41.115 74.7652 41.869C74.0892 42.623 73.1055 43 71.8142 43H69.6302ZM70.7092 42.116H71.6842C72.6809 42.116 73.4262 41.817 73.9202 41.219C74.4229 40.6123 74.6742 39.7717 74.6742 38.697C74.6742 37.6223 74.4229 36.799 73.9202 36.227C73.4262 35.6463 72.6809 35.356 71.6842 35.356H70.7092V42.116ZM78.0832 43V34.472H82.9972V35.382H79.1622V38.06H82.3992V38.983H79.1622V42.077H83.1272V43H78.0832ZM85.3937 43V34.472H86.4727V42.077H90.2037V43H85.3937ZM92.171 43V34.472H93.25V43H92.171ZM99.395 43.156C98.6497 43.156 97.9867 42.9827 97.406 42.636C96.8253 42.2807 96.3703 41.7737 96.041 41.115C95.7117 40.4563 95.547 39.6633 95.547 38.736C95.547 37.8173 95.716 37.0287 96.054 36.37C96.392 35.7113 96.8557 35.2043 97.445 34.849C98.0343 34.4937 98.706 34.316 99.46 34.316C100.049 34.316 100.543 34.4287 100.942 34.654C101.349 34.8707 101.674 35.109 101.917 35.369L101.319 36.071C101.102 35.8457 100.851 35.655 100.565 35.499C100.279 35.343 99.9193 35.265 99.486 35.265C98.914 35.265 98.4157 35.408 97.991 35.694C97.5663 35.9713 97.237 36.3657 97.003 36.877C96.7777 37.3883 96.665 37.9993 96.665 38.71C96.665 39.7847 96.9077 40.6383 97.393 41.271C97.887 41.895 98.589 42.207 99.499 42.207C99.8023 42.207 100.093 42.1637 100.37 42.077C100.647 41.9817 100.868 41.856 101.033 41.7V39.477H99.226V38.58H102.021V42.168C101.752 42.454 101.388 42.6923 100.929 42.883C100.478 43.065 99.967 43.156 99.395 43.156ZM104.519 43V34.472H105.598V38.047H109.563V34.472H110.655V43H109.563V38.983H105.598V43H104.519ZM115.223 43V35.382H112.649V34.472H118.889V35.382H116.315V43H115.223ZM127.161 43.156C126.451 43.156 125.814 42.9827 125.25 42.636C124.696 42.2807 124.254 41.7737 123.924 41.115C123.604 40.4563 123.443 39.6633 123.443 38.736C123.443 37.8173 123.608 37.0287 123.937 36.37C124.267 35.7113 124.717 35.2043 125.289 34.849C125.861 34.4937 126.507 34.316 127.226 34.316C127.746 34.316 128.206 34.4243 128.604 34.641C129.003 34.849 129.324 35.0917 129.566 35.369L128.981 36.071C128.756 35.8283 128.5 35.6333 128.214 35.486C127.928 35.3387 127.603 35.265 127.239 35.265C126.702 35.265 126.23 35.408 125.822 35.694C125.424 35.9713 125.112 36.3657 124.886 36.877C124.67 37.3883 124.561 37.9993 124.561 38.71C124.561 39.4207 124.67 40.0403 124.886 40.569C125.103 41.089 125.406 41.492 125.796 41.778C126.195 42.064 126.663 42.207 127.2 42.207C127.608 42.207 127.972 42.1203 128.292 41.947C128.613 41.7737 128.908 41.5397 129.176 41.245L129.774 41.921C129.436 42.311 129.055 42.6143 128.63 42.831C128.206 43.0477 127.716 43.156 127.161 43.156ZM139.231 43V39.178C139.023 39.2127 138.794 39.243 138.542 39.269C138.3 39.295 138.009 39.308 137.671 39.308C137.03 39.308 136.475 39.2213 136.007 39.048C135.548 38.866 135.193 38.5713 134.941 38.164C134.699 37.7567 134.577 37.2107 134.577 36.526V34.472H135.643V36.526C135.643 37.2367 135.825 37.7307 136.189 38.008C136.562 38.2767 137.091 38.411 137.775 38.411C138.096 38.411 138.373 38.398 138.607 38.372C138.85 38.346 139.058 38.3157 139.231 38.281V34.472H140.31V43H139.231ZM144.57 38.229L144.167 39.529H146.728L146.325 38.229C146.169 37.7523 146.022 37.28 145.883 36.812C145.744 36.3353 145.606 35.85 145.467 35.356H145.415C145.285 35.85 145.151 36.3353 145.012 36.812C144.873 37.28 144.726 37.7523 144.57 38.229ZM141.97 43L144.856 34.472H146.078L148.964 43H147.807L147.001 40.4H143.894L143.075 43H141.97ZM150.627 43V34.472H155.892V35.382H151.706V38.06H153.344C153.951 38.06 154.488 38.138 154.956 38.294C155.424 38.45 155.793 38.7013 156.061 39.048C156.33 39.386 156.464 39.841 156.464 40.413C156.464 41.3057 156.187 41.96 155.632 42.376C155.078 42.792 154.332 43 153.396 43H150.627ZM151.706 42.142H153.214C153.942 42.142 154.488 42.0033 154.852 41.726C155.216 41.4487 155.398 41.0197 155.398 40.439C155.398 39.893 155.212 39.4987 154.839 39.256C154.467 39.0133 153.916 38.892 153.188 38.892H151.706V42.142ZM158.623 43V34.472H161.054C161.696 34.472 162.255 34.55 162.731 34.706C163.208 34.862 163.581 35.1263 163.849 35.499C164.118 35.863 164.252 36.357 164.252 36.981C164.252 37.8737 163.962 38.5367 163.381 38.97C162.801 39.4033 162.042 39.62 161.106 39.62H159.702V43H158.623ZM159.702 38.736H160.976C161.722 38.736 162.272 38.5973 162.627 38.32C162.991 38.034 163.173 37.5877 163.173 36.981C163.173 36.3657 162.983 35.941 162.601 35.707C162.229 35.4643 161.67 35.343 160.924 35.343H159.702V38.736ZM166.442 43V34.472H171.356V35.382H167.521V38.06H170.758V38.983H167.521V42.077H171.486V43H166.442ZM179.524 45.444V43H173.752V34.472H174.831V42.077H178.562V34.472H179.641V42.077H180.59V42.727L180.473 45.444H179.524ZM185.567 43.156C184.856 43.156 184.224 42.974 183.669 42.61C183.123 42.246 182.694 41.7303 182.382 41.063C182.079 40.3957 181.927 39.607 181.927 38.697C181.927 37.787 182.079 37.007 182.382 36.357C182.694 35.6983 183.123 35.1957 183.669 34.849C184.224 34.4937 184.856 34.316 185.567 34.316C186.286 34.316 186.919 34.4937 187.465 34.849C188.011 35.1957 188.44 35.6983 188.752 36.357C189.064 37.007 189.22 37.787 189.22 38.697C189.22 39.607 189.064 40.3957 188.752 41.063C188.44 41.7303 188.011 42.246 187.465 42.61C186.919 42.974 186.286 43.156 185.567 43.156ZM185.567 42.207C186.078 42.207 186.52 42.064 186.893 41.778C187.274 41.4833 187.569 41.076 187.777 40.556C187.985 40.0273 188.089 39.4077 188.089 38.697C188.089 37.6397 187.859 36.8033 187.4 36.188C186.941 35.5727 186.33 35.265 185.567 35.265C184.804 35.265 184.193 35.5727 183.734 36.188C183.275 36.8033 183.045 37.6397 183.045 38.697C183.045 39.4077 183.149 40.0273 183.357 40.556C183.565 41.076 183.86 41.4833 184.241 41.778C184.622 42.064 185.064 42.207 185.567 42.207ZM191.509 43V34.472H192.809L194.447 39.022C194.551 39.3167 194.65 39.6157 194.746 39.919C194.85 40.2137 194.954 40.5083 195.058 40.803H195.11C195.214 40.5083 195.309 40.2137 195.396 39.919C195.491 39.6157 195.591 39.3167 195.695 39.022L197.307 34.472H198.62V43H197.606V38.307C197.606 37.9257 197.623 37.5053 197.658 37.046C197.692 36.578 197.723 36.1577 197.749 35.785H197.697L197.021 37.722L195.409 42.142H194.694L193.082 37.722L192.406 35.785H192.354C192.38 36.1577 192.406 36.578 192.432 37.046C192.466 37.5053 192.484 37.9257 192.484 38.307V43H191.509ZM206.534 43.156C205.702 43.156 205.047 42.7833 204.571 42.038C204.103 41.284 203.869 40.2137 203.869 38.827C203.869 37.4317 204.103 36.37 204.571 35.642C205.047 34.914 205.702 34.55 206.534 34.55C207.357 34.55 208.003 34.914 208.471 35.642C208.947 36.37 209.186 37.4317 209.186 38.827C209.186 40.2137 208.947 41.284 208.471 42.038C208.003 42.7833 207.357 43.156 206.534 43.156ZM206.534 42.298C207.019 42.298 207.409 42.025 207.704 41.479C207.998 40.9243 208.146 40.0403 208.146 38.827C208.146 37.6137 207.998 36.7427 207.704 36.214C207.409 35.6767 207.019 35.408 206.534 35.408C206.048 35.408 205.654 35.6767 205.351 36.214C205.056 36.7427 204.909 37.6137 204.909 38.827C204.909 40.0403 205.056 40.9243 205.351 41.479C205.654 42.025 206.048 42.298 206.534 42.298ZM211.085 45.21L210.825 44.586C211.197 44.4213 211.488 44.2003 211.696 43.923C211.904 43.6543 212.003 43.3467 211.995 43C211.977 43.0087 211.956 43.013 211.93 43.013C211.904 43.013 211.882 43.013 211.865 43.013C211.657 43.013 211.475 42.9523 211.319 42.831C211.171 42.701 211.098 42.5147 211.098 42.272C211.098 42.038 211.176 41.856 211.332 41.726C211.488 41.5873 211.674 41.518 211.891 41.518C212.168 41.518 212.385 41.6307 212.541 41.856C212.705 42.0813 212.788 42.389 212.788 42.779C212.788 43.3337 212.636 43.819 212.333 44.235C212.029 44.6597 211.613 44.9847 211.085 45.21ZM215.427 37.215C215.427 37.7523 215.552 38.1813 215.804 38.502C216.064 38.814 216.449 38.97 216.961 38.97C217.238 38.97 217.528 38.8833 217.832 38.71C218.144 38.5367 218.434 38.255 218.703 37.865C218.633 37.059 218.443 36.448 218.131 36.032C217.819 35.6073 217.398 35.395 216.87 35.395C216.471 35.395 216.129 35.564 215.843 35.902C215.565 36.2313 215.427 36.669 215.427 37.215ZM216.571 43.156C216.129 43.156 215.739 43.0737 215.401 42.909C215.071 42.7357 214.794 42.5277 214.569 42.285L215.167 41.609C215.34 41.8083 215.544 41.9687 215.778 42.09C216.02 42.2113 216.272 42.272 216.532 42.272C216.922 42.272 217.281 42.1593 217.611 41.934C217.94 41.7087 218.204 41.336 218.404 40.816C218.612 40.296 218.72 39.594 218.729 38.71C218.469 39.0393 218.165 39.2993 217.819 39.49C217.472 39.6807 217.125 39.776 216.779 39.776C216.068 39.776 215.496 39.5637 215.063 39.139C214.638 38.7057 214.426 38.0643 214.426 37.215C214.426 36.6863 214.538 36.2227 214.764 35.824C214.989 35.4253 215.284 35.1133 215.648 34.888C216.02 34.6627 216.428 34.55 216.87 34.55C217.416 34.55 217.905 34.6973 218.339 34.992C218.772 35.2867 219.11 35.7287 219.353 36.318C219.604 36.9073 219.73 37.6483 219.73 38.541C219.73 39.6503 219.578 40.543 219.275 41.219C218.98 41.895 218.594 42.389 218.118 42.701C217.641 43.0043 217.125 43.156 216.571 43.156ZM221.551 43.156C221.412 43.156 221.286 43.1473 221.174 43.13C221.061 43.1127 220.944 43.0823 220.823 43.039L221.044 42.038C221.174 42.09 221.295 42.116 221.408 42.116C221.564 42.116 221.707 42.0683 221.837 41.973C221.967 41.869 222.092 41.6523 222.214 41.323C222.344 40.9937 222.474 40.4953 222.604 39.828C222.777 38.9353 222.942 38.0557 223.098 37.189C223.254 36.3137 223.414 35.408 223.579 34.472H227.843V43H226.764V35.382H224.424C224.285 36.162 224.151 36.929 224.021 37.683C223.899 38.437 223.765 39.191 223.618 39.945C223.462 40.8117 223.288 41.479 223.098 41.947C222.907 42.4063 222.686 42.7227 222.435 42.896C222.192 43.0693 221.897 43.156 221.551 43.156Z" fill="#252525"/>
<path d="M77.8207 63.096C77.4154 63.096 77.0794 63.024 76.8127 62.88C76.5461 62.736 76.3247 62.576 76.1487 62.4L76.4687 61.968C76.6234 62.1173 76.8021 62.2533 77.0047 62.376C77.2074 62.4933 77.4581 62.552 77.7567 62.552C78.0714 62.552 78.3354 62.448 78.5487 62.24C78.7674 62.0267 78.8767 61.7413 78.8767 61.384C78.8767 61.032 78.7781 60.7573 78.5807 60.56C78.3834 60.3627 78.1194 60.264 77.7887 60.264C77.6127 60.264 77.4607 60.2907 77.3327 60.344C77.2101 60.3973 77.0714 60.4747 76.9167 60.576L76.5647 60.352L76.7327 57.896H79.2847V58.464H77.3087L77.1727 59.976C77.2954 59.912 77.4181 59.8613 77.5407 59.824C77.6634 59.7867 77.8021 59.768 77.9567 59.768C78.2501 59.768 78.5141 59.8267 78.7487 59.944C78.9887 60.056 79.1807 60.2293 79.3247 60.464C79.4687 60.6987 79.5407 61 79.5407 61.368C79.5407 61.736 79.4581 62.0507 79.2927 62.312C79.1327 62.568 78.9221 62.7627 78.6607 62.896C78.3994 63.0293 78.1194 63.096 77.8207 63.096ZM81.2053 63.096C81.072 63.096 80.9573 63.0507 80.8613 62.96C80.7706 62.864 80.7253 62.744 80.7253 62.6C80.7253 62.4453 80.7706 62.3227 80.8613 62.232C80.9573 62.136 81.072 62.088 81.2053 62.088C81.3333 62.088 81.4426 62.136 81.5333 62.232C81.6293 62.3227 81.6773 62.4453 81.6773 62.6C81.6773 62.744 81.6293 62.864 81.5333 62.96C81.4426 63.0507 81.3333 63.096 81.2053 63.096ZM84.4695 63.096C83.9575 63.096 83.5548 62.8667 83.2615 62.408C82.9735 61.944 82.8295 61.2853 82.8295 60.432C82.8295 59.5733 82.9735 58.92 83.2615 58.472C83.5548 58.024 83.9575 57.8 84.4695 57.8C84.9762 57.8 85.3735 58.024 85.6615 58.472C85.9548 58.92 86.1015 59.5733 86.1015 60.432C86.1015 61.2853 85.9548 61.944 85.6615 62.408C85.3735 62.8667 84.9762 63.096 84.4695 63.096ZM84.4695 62.568C84.7682 62.568 85.0082 62.4 85.1895 62.064C85.3708 61.7227 85.4615 61.1787 85.4615 60.432C85.4615 59.6853 85.3708 59.1493 85.1895 58.824C85.0082 58.4933 84.7682 58.328 84.4695 58.328C84.1708 58.328 83.9282 58.4933 83.7415 58.824C83.5602 59.1493 83.4695 59.6853 83.4695 60.432C83.4695 61.1787 83.5602 61.7227 83.7415 62.064C83.9282 62.4 84.1708 62.568 84.4695 62.568ZM89.3356 63V57.752H92.3596V58.312H89.9996V60.088H91.9996V60.648H89.9996V63H89.3356ZM93.5687 63V57.752H95.2087C95.5661 57.752 95.8834 57.8 96.1607 57.896C96.4381 57.9867 96.6541 58.1413 96.8087 58.36C96.9687 58.5733 97.0487 58.8613 97.0487 59.224C97.0487 59.6293 96.9421 59.9573 96.7287 60.208C96.5154 60.4533 96.2274 60.6213 95.8647 60.712L97.2007 63H96.4487L95.1847 60.784H94.2327V63H93.5687ZM94.2327 60.24H95.1127C95.5234 60.24 95.8381 60.1573 96.0567 59.992C96.2754 59.8213 96.3847 59.5653 96.3847 59.224C96.3847 58.8773 96.2754 58.6347 96.0567 58.496C95.8381 58.3573 95.5234 58.288 95.1127 58.288H94.2327V60.24ZM100.339 63.096C99.9021 63.096 99.5128 62.984 99.1714 62.76C98.8354 62.536 98.5714 62.2187 98.3794 61.808C98.1928 61.3973 98.0994 60.912 98.0994 60.352C98.0994 59.792 98.1928 59.312 98.3794 58.912C98.5714 58.5067 98.8354 58.1973 99.1714 57.984C99.5128 57.7653 99.9021 57.656 100.339 57.656C100.782 57.656 101.171 57.7653 101.507 57.984C101.843 58.1973 102.107 58.5067 102.299 58.912C102.491 59.312 102.587 59.792 102.587 60.352C102.587 60.912 102.491 61.3973 102.299 61.808C102.107 62.2187 101.843 62.536 101.507 62.76C101.171 62.984 100.782 63.096 100.339 63.096ZM100.339 62.512C100.654 62.512 100.926 62.424 101.155 62.248C101.39 62.0667 101.571 61.816 101.699 61.496C101.827 61.1707 101.891 60.7893 101.891 60.352C101.891 59.7013 101.75 59.1867 101.467 58.808C101.185 58.4293 100.809 58.24 100.339 58.24C99.8701 58.24 99.4941 58.4293 99.2114 58.808C98.9288 59.1867 98.7874 59.7013 98.7874 60.352C98.7874 60.7893 98.8514 61.1707 98.9794 61.496C99.1074 61.816 99.2888 62.0667 99.5234 62.248C99.7581 62.424 100.03 62.512 100.339 62.512ZM103.996 63V57.752H104.796L105.804 60.552C105.868 60.7333 105.929 60.9173 105.988 61.104C106.052 61.2853 106.116 61.4667 106.18 61.648H106.212C106.276 61.4667 106.335 61.2853 106.388 61.104C106.447 60.9173 106.508 60.7333 106.572 60.552L107.564 57.752H108.372V63H107.748V60.112C107.748 59.8773 107.759 59.6187 107.78 59.336C107.801 59.048 107.82 58.7893 107.836 58.56H107.804L107.388 59.752L106.396 62.472H105.956L104.964 59.752L104.548 58.56H104.516C104.532 58.7893 104.548 59.048 104.564 59.336C104.585 59.6187 104.596 59.8773 104.596 60.112V63H103.996ZM113.25 63.096C112.93 63.096 112.645 63.0373 112.394 62.92C112.143 62.7973 111.943 62.6293 111.794 62.416C111.65 62.2027 111.578 61.9627 111.578 61.696C111.578 61.472 111.623 61.2747 111.714 61.104C111.81 60.928 111.93 60.776 112.074 60.648C112.223 60.5147 112.378 60.4053 112.538 60.32V60.288C112.351 60.1547 112.186 59.992 112.042 59.8C111.898 59.608 111.826 59.3787 111.826 59.112C111.826 58.8507 111.89 58.6213 112.018 58.424C112.146 58.2267 112.319 58.0747 112.538 57.968C112.757 57.856 113.002 57.8 113.274 57.8C113.717 57.8 114.066 57.928 114.322 58.184C114.583 58.44 114.714 58.7653 114.714 59.16C114.714 59.336 114.677 59.504 114.602 59.664C114.527 59.8187 114.437 59.96 114.33 60.088C114.223 60.2107 114.117 60.312 114.01 60.392V60.424C114.165 60.5093 114.309 60.6107 114.442 60.728C114.575 60.8453 114.685 60.9867 114.77 61.152C114.855 61.312 114.898 61.5067 114.898 61.736C114.898 61.9867 114.829 62.216 114.69 62.424C114.557 62.632 114.365 62.7973 114.114 62.92C113.869 63.0373 113.581 63.096 113.25 63.096ZM113.61 60.216C113.781 60.0613 113.911 59.8987 114.002 59.728C114.098 59.5573 114.146 59.3787 114.146 59.192C114.146 58.9413 114.069 58.728 113.914 58.552C113.759 58.376 113.541 58.288 113.258 58.288C113.023 58.288 112.826 58.3627 112.666 58.512C112.511 58.6613 112.434 58.8613 112.434 59.112C112.434 59.3147 112.487 59.4827 112.594 59.616C112.706 59.7493 112.853 59.864 113.034 59.96C113.215 60.0507 113.407 60.136 113.61 60.216ZM113.266 62.608C113.565 62.608 113.805 62.5253 113.986 62.36C114.173 62.1893 114.266 61.9733 114.266 61.712C114.266 61.4933 114.202 61.3147 114.074 61.176C113.946 61.0373 113.775 60.9173 113.562 60.816C113.354 60.7147 113.127 60.616 112.882 60.52C112.679 60.6533 112.509 60.8133 112.37 61C112.237 61.1867 112.17 61.3973 112.17 61.632C112.17 61.9147 112.274 62.1493 112.482 62.336C112.695 62.5173 112.957 62.608 113.266 62.608ZM116.443 59.44C116.443 59.7707 116.52 60.0347 116.675 60.232C116.835 60.424 117.072 60.52 117.387 60.52C117.557 60.52 117.736 60.4667 117.923 60.36C118.115 60.2533 118.293 60.08 118.459 59.84C118.416 59.344 118.299 58.968 118.107 58.712C117.915 58.4507 117.656 58.32 117.331 58.32C117.085 58.32 116.875 58.424 116.699 58.632C116.528 58.8347 116.443 59.104 116.443 59.44ZM117.147 63.096C116.875 63.096 116.635 63.0453 116.427 62.944C116.224 62.8373 116.053 62.7093 115.915 62.56L116.283 62.144C116.389 62.2667 116.515 62.3653 116.659 62.44C116.808 62.5147 116.963 62.552 117.123 62.552C117.363 62.552 117.584 62.4827 117.787 62.344C117.989 62.2053 118.152 61.976 118.275 61.656C118.403 61.336 118.469 60.904 118.475 60.36C118.315 60.5627 118.128 60.7227 117.915 60.84C117.701 60.9573 117.488 61.016 117.275 61.016C116.837 61.016 116.485 60.8853 116.219 60.624C115.957 60.3573 115.827 59.9627 115.827 59.44C115.827 59.1147 115.896 58.8293 116.035 58.584C116.173 58.3387 116.355 58.1467 116.579 58.008C116.808 57.8693 117.059 57.8 117.331 57.8C117.667 57.8 117.968 57.8907 118.235 58.072C118.501 58.2533 118.709 58.5253 118.859 58.888C119.013 59.2507 119.091 59.7067 119.091 60.256C119.091 60.9387 118.997 61.488 118.811 61.904C118.629 62.32 118.392 62.624 118.099 62.816C117.805 63.0027 117.488 63.096 117.147 63.096ZM122.365 63V57.752H124.005C124.362 57.752 124.679 57.8 124.957 57.896C125.234 57.9867 125.45 58.1413 125.605 58.36C125.765 58.5733 125.845 58.8613 125.845 59.224C125.845 59.6293 125.738 59.9573 125.525 60.208C125.311 60.4533 125.023 60.6213 124.661 60.712L125.997 63H125.245L123.981 60.784H123.029V63H122.365ZM123.029 60.24H123.909C124.319 60.24 124.634 60.1573 124.853 59.992C125.071 59.8213 125.181 59.5653 125.181 59.224C125.181 58.8773 125.071 58.6347 124.853 58.496C124.634 58.3573 124.319 58.288 123.909 58.288H123.029V60.24ZM127.199 63V57.752H130.223V58.312H127.863V59.96H129.855V60.528H127.863V62.432H130.303V63H127.199ZM132.658 63L130.978 57.752H131.69L132.53 60.584C132.626 60.8933 132.709 61.184 132.778 61.456C132.853 61.7227 132.941 62.0107 133.042 62.32H133.074C133.17 62.0107 133.255 61.7227 133.33 61.456C133.405 61.184 133.487 60.8933 133.578 60.584L134.418 57.752H135.098L133.434 63H132.658ZM136.095 63V57.752H136.759V63H136.095ZM138.477 63V57.752H141.501V58.312H139.141V59.96H141.133V60.528H139.141V62.432H141.581V63H138.477ZM143.552 63L142.44 57.752H143.128L143.68 60.608C143.728 60.8907 143.778 61.1733 143.832 61.456C143.885 61.7387 143.936 62.0213 143.984 62.304H144.016C144.074 62.0213 144.136 61.7387 144.2 61.456C144.264 61.168 144.325 60.8853 144.384 60.608L145.112 57.752H145.72L146.448 60.608C146.512 60.8853 146.576 61.168 146.64 61.456C146.704 61.7387 146.768 62.0213 146.832 62.304H146.864C146.912 62.0213 146.96 61.7387 147.008 61.456C147.056 61.168 147.106 60.8853 147.16 60.608L147.712 57.752H148.352L147.264 63H146.464L145.672 59.84C145.624 59.6373 145.578 59.44 145.536 59.248C145.498 59.0507 145.458 58.8507 145.416 58.648H145.384C145.346 58.8507 145.304 59.0507 145.256 59.248C145.208 59.44 145.162 59.6373 145.12 59.84L144.344 63H143.552ZM150.954 63.096C150.586 63.096 150.244 63.0267 149.93 62.888C149.615 62.744 149.343 62.5547 149.114 62.32L149.514 61.856C149.7 62.0533 149.919 62.2133 150.17 62.336C150.426 62.4533 150.69 62.512 150.962 62.512C151.308 62.512 151.578 62.4347 151.77 62.28C151.962 62.12 152.058 61.912 152.058 61.656C152.058 61.4747 152.018 61.3307 151.938 61.224C151.863 61.1173 151.759 61.0267 151.626 60.952C151.498 60.8773 151.351 60.8027 151.186 60.728L150.434 60.4C150.268 60.3307 150.103 60.24 149.938 60.128C149.778 60.016 149.642 59.872 149.53 59.696C149.423 59.52 149.37 59.304 149.37 59.048C149.37 58.7813 149.439 58.544 149.578 58.336C149.722 58.1227 149.919 57.9573 150.17 57.84C150.42 57.7173 150.703 57.656 151.018 57.656C151.332 57.656 151.623 57.7173 151.89 57.84C152.156 57.9573 152.383 58.112 152.57 58.304L152.21 58.736C152.05 58.5813 151.871 58.4613 151.674 58.376C151.482 58.2853 151.263 58.24 151.018 58.24C150.724 58.24 150.487 58.3093 150.306 58.448C150.13 58.5867 150.042 58.7733 150.042 59.008C150.042 59.1733 150.084 59.312 150.17 59.424C150.26 59.5307 150.372 59.6187 150.506 59.688C150.639 59.7573 150.775 59.8213 150.914 59.88L151.658 60.2C151.86 60.2853 152.042 60.3893 152.202 60.512C152.367 60.6293 152.498 60.776 152.594 60.952C152.69 61.1227 152.738 61.3387 152.738 61.6C152.738 61.8773 152.666 62.1307 152.522 62.36C152.378 62.584 152.172 62.7627 151.906 62.896C151.639 63.0293 151.322 63.096 150.954 63.096Z" fill="#252525"/>
<path d="M83.0046 76.7478C82.7798 76.3604 82.2204 76.3604 81.9956 76.7478L80.4124 79.4762C80.3013 79.6676 80.1094 79.7982 79.8906 79.8312L76.9236 80.2794C76.4252 80.3546 76.2504 80.9838 76.6385 81.3054L78.8488 83.1366C79.0534 83.3061 79.1496 83.5735 79.0999 83.8345L78.5217 86.8708C78.4303 87.3508 78.9342 87.7237 79.3666 87.4961L82.1604 86.025C82.373 85.913 82.6272 85.913 82.8398 86.025L85.6336 87.4961C86.066 87.7237 86.5699 87.3508 86.4785 86.8708L85.9003 83.8345C85.8506 83.5735 85.9468 83.3061 86.1514 83.1366L88.3617 81.3054C88.7498 80.9838 88.575 80.3546 88.0766 80.2794L85.1096 79.8312C84.8908 79.7982 84.6989 79.6676 84.5878 79.4762L83.0046 76.7478Z" fill="#99BFD4"/>
<path d="M99.0046 76.7478C98.7798 76.3604 98.2204 76.3604 97.9956 76.7478L96.4124 79.4762C96.3013 79.6676 96.1094 79.7982 95.8906 79.8312L92.9236 80.2794C92.4252 80.3546 92.2504 80.9838 92.6385 81.3054L94.8488 83.1366C95.0534 83.3061 95.1496 83.5735 95.0999 83.8345L94.5217 86.8708C94.4303 87.3508 94.9342 87.7237 95.3666 87.4961L98.1604 86.025C98.373 85.913 98.6272 85.913 98.8398 86.025L101.634 87.4961C102.066 87.7237 102.57 87.3508 102.478 86.8708L101.9 83.8345C101.851 83.5735 101.947 83.3061 102.151 83.1366L104.362 81.3054C104.75 80.9838 104.575 80.3546 104.077 80.2794L101.11 79.8312C100.891 79.7982 100.699 79.6676 100.588 79.4762L99.0046 76.7478Z" fill="#99BFD4"/>
<path d="M115.005 76.7478C114.78 76.3604 114.22 76.3604 113.996 76.7478L112.412 79.4762C112.301 79.6676 112.109 79.7982 111.891 79.8312L108.924 80.2794C108.425 80.3546 108.25 80.9838 108.639 81.3054L110.849 83.1366C111.053 83.3061 111.15 83.5735 111.1 83.8345L110.522 86.8708C110.43 87.3508 110.934 87.7237 111.367 87.4961L114.16 86.025C114.373 85.913 114.627 85.913 114.84 86.025L117.634 87.4961C118.066 87.7237 118.57 87.3508 118.478 86.8708L117.9 83.8345C117.851 83.5735 117.947 83.3061 118.151 83.1366L120.362 81.3054C120.75 80.9838 120.575 80.3546 120.077 80.2794L117.11 79.8312C116.891 79.7982 116.699 79.6676 116.588 79.4762L115.005 76.7478Z" fill="#99BFD4"/>
<path d="M131.005 76.7478C130.78 76.3604 130.22 76.3604 129.996 76.7478L128.412 79.4762C128.301 79.6676 128.109 79.7982 127.891 79.8312L124.924 80.2794C124.425 80.3546 124.25 80.9838 124.639 81.3054L126.849 83.1366C127.053 83.3061 127.15 83.5735 127.1 83.8345L126.522 86.8708C126.43 87.3508 126.934 87.7237 127.367 87.4961L130.16 86.025C130.373 85.913 130.627 85.913 130.84 86.025L133.634 87.4961C134.066 87.7237 134.57 87.3508 134.478 86.8708L133.9 83.8345C133.851 83.5735 133.947 83.3061 134.151 83.1366L136.362 81.3054C136.75 80.9838 136.575 80.3546 136.077 80.2794L133.11 79.8312C132.891 79.7982 132.699 79.6676 132.588 79.4762L131.005 76.7478Z" fill="#99BFD4"/>
<path d="M147.005 76.7478C146.78 76.3604 146.22 76.3604 145.996 76.7478L144.412 79.4762C144.301 79.6676 144.109 79.7982 143.891 79.8312L140.924 80.2794C140.425 80.3546 140.25 80.9838 140.639 81.3054L142.849 83.1366C143.053 83.3061 143.15 83.5735 143.1 83.8345L142.522 86.8708C142.43 87.3508 142.934 87.7237 143.367 87.4961L146.16 86.025C146.373 85.913 146.627 85.913 146.84 86.025L149.634 87.4961C150.066 87.7237 150.57 87.3508 150.478 86.8708L149.9 83.8345C149.851 83.5735 149.947 83.3061 150.151 83.1366L152.362 81.3054C152.75 80.9838 152.575 80.3546 152.077 80.2794L149.11 79.8312C148.891 79.7982 148.699 79.6676 148.588 79.4762L147.005 76.7478Z" fill="#99BFD4"/>
</svg>
