<svg width="143" height="140" viewBox="0 0 143 140" fill="none" xmlns="http://www.w3.org/2000/svg">
<rect x="3" y="109.457" width="140" height="30" rx="10" fill="#FFBBF4"/>
<path d="M13.7987 128.457V121.937H18.8887V128.457H17.4187V123.177H15.2687V128.457H13.7987ZM23.4296 128.577C22.8429 128.577 22.3262 128.44 21.8796 128.167C21.4396 127.894 21.0929 127.504 20.8396 126.997C20.5929 126.484 20.4696 125.874 20.4696 125.167C20.4696 124.454 20.5929 123.85 20.8396 123.357C21.0929 122.857 21.4396 122.477 21.8796 122.217C22.3262 121.95 22.8429 121.817 23.4296 121.817C24.0162 121.817 24.5296 121.95 24.9696 122.217C25.4162 122.477 25.7629 122.857 26.0096 123.357C26.2629 123.857 26.3896 124.46 26.3896 125.167C26.3896 125.874 26.2629 126.484 26.0096 126.997C25.7629 127.504 25.4162 127.894 24.9696 128.167C24.5296 128.44 24.0162 128.577 23.4296 128.577ZM23.4296 127.307C23.8762 127.307 24.2296 127.114 24.4896 126.727C24.7496 126.34 24.8796 125.82 24.8796 125.167C24.8796 124.514 24.7496 124.004 24.4896 123.637C24.2296 123.27 23.8762 123.087 23.4296 123.087C22.9829 123.087 22.6296 123.27 22.3696 123.637C22.1096 124.004 21.9796 124.514 21.9796 125.167C21.9796 125.82 22.1096 126.34 22.3696 126.727C22.6296 127.114 22.9829 127.307 23.4296 127.307ZM27.9655 128.457V121.937H33.0555V128.457H31.5855V123.177H29.4355V128.457H27.9655ZM34.9464 128.457V121.937H37.1864C37.6664 121.937 38.0997 122.004 38.4864 122.137C38.8797 122.264 39.193 122.48 39.4264 122.787C39.6597 123.094 39.7764 123.51 39.7764 124.037C39.7764 124.544 39.6597 124.96 39.4264 125.287C39.193 125.614 38.883 125.857 38.4964 126.017C38.1097 126.17 37.6864 126.247 37.2264 126.247H36.4164V128.457H34.9464ZM36.4164 125.077H37.1364C37.9364 125.077 38.3364 124.73 38.3364 124.037C38.3364 123.697 38.2297 123.457 38.0164 123.317C37.803 123.177 37.4964 123.107 37.0964 123.107H36.4164V125.077ZM43.9034 128.577C43.3167 128.577 42.8001 128.44 42.3534 128.167C41.9134 127.894 41.5667 127.504 41.3134 126.997C41.0667 126.484 40.9434 125.874 40.9434 125.167C40.9434 124.454 41.0667 123.85 41.3134 123.357C41.5667 122.857 41.9134 122.477 42.3534 122.217C42.8001 121.95 43.3167 121.817 43.9034 121.817C44.4901 121.817 45.0034 121.95 45.4434 122.217C45.8901 122.477 46.2367 122.857 46.4834 123.357C46.7367 123.857 46.8634 124.46 46.8634 125.167C46.8634 125.874 46.7367 126.484 46.4834 126.997C46.2367 127.504 45.8901 127.894 45.4434 128.167C45.0034 128.44 44.4901 128.577 43.9034 128.577ZM43.9034 127.307C44.3501 127.307 44.7034 127.114 44.9634 126.727C45.2234 126.34 45.3534 125.82 45.3534 125.167C45.3534 124.514 45.2234 124.004 44.9634 123.637C44.7034 123.27 44.3501 123.087 43.9034 123.087C43.4567 123.087 43.1034 123.27 42.8434 123.637C42.5834 124.004 42.4534 124.514 42.4534 125.167C42.4534 125.82 42.5834 126.34 42.8434 126.727C43.1034 127.114 43.4567 127.307 43.9034 127.307ZM48.4393 128.457V121.937H52.8893V123.177H49.9093V124.487H50.8093C51.2693 124.487 51.686 124.547 52.0593 124.667C52.4393 124.78 52.7427 124.977 52.9693 125.257C53.196 125.53 53.3093 125.907 53.3093 126.387C53.3093 126.88 53.1993 127.28 52.9793 127.587C52.7593 127.894 52.4627 128.117 52.0893 128.257C51.7227 128.39 51.3093 128.457 50.8493 128.457H48.4393ZM49.9093 127.317H50.6993C51.0927 127.317 51.386 127.244 51.5793 127.097C51.7727 126.95 51.8693 126.72 51.8693 126.407C51.8693 126.1 51.7693 125.884 51.5693 125.757C51.3693 125.63 51.076 125.567 50.6893 125.567H49.9093V127.317ZM57.4354 128.577C56.8488 128.577 56.3321 128.44 55.8854 128.167C55.4454 127.894 55.0988 127.504 54.8454 126.997C54.5988 126.484 54.4754 125.874 54.4754 125.167C54.4754 124.454 54.5988 123.85 54.8454 123.357C55.0988 122.857 55.4454 122.477 55.8854 122.217C56.3321 121.95 56.8488 121.817 57.4354 121.817C58.0221 121.817 58.5354 121.95 58.9754 122.217C59.4221 122.477 59.7688 122.857 60.0154 123.357C60.2688 123.857 60.3954 124.46 60.3954 125.167C60.3954 125.874 60.2688 126.484 60.0154 126.997C59.7688 127.504 59.4221 127.894 58.9754 128.167C58.5354 128.44 58.0221 128.577 57.4354 128.577ZM57.4354 127.307C57.8821 127.307 58.2354 127.114 58.4954 126.727C58.7554 126.34 58.8854 125.82 58.8854 125.167C58.8854 124.514 58.7554 124.004 58.4954 123.637C58.2354 123.27 57.8821 123.087 57.4354 123.087C56.9888 123.087 56.6354 123.27 56.3754 123.637C56.1154 124.004 55.9854 124.514 55.9854 125.167C55.9854 125.82 56.1154 126.34 56.3754 126.727C56.6354 127.114 56.9888 127.307 57.4354 127.307ZM61.9714 128.457V121.937H64.2014C64.6547 121.937 65.0614 121.987 65.4214 122.087C65.7814 122.18 66.068 122.344 66.2814 122.577C66.4947 122.81 66.6014 123.137 66.6014 123.557C66.6014 123.844 66.5247 124.127 66.3714 124.407C66.2247 124.68 66.018 124.867 65.7514 124.967V125.007C66.0847 125.094 66.3614 125.264 66.5814 125.517C66.808 125.764 66.9214 126.104 66.9214 126.537C66.9214 126.984 66.808 127.347 66.5814 127.627C66.3547 127.907 66.0514 128.117 65.6714 128.257C65.2914 128.39 64.8647 128.457 64.3914 128.457H61.9714ZM63.4414 124.547H64.1314C64.4914 124.547 64.7514 124.477 64.9114 124.337C65.078 124.197 65.1614 124.01 65.1614 123.777C65.1614 123.524 65.078 123.344 64.9114 123.237C64.7447 123.13 64.488 123.077 64.1414 123.077H63.4414V124.547ZM63.4414 127.317H64.2714C65.078 127.317 65.4814 127.024 65.4814 126.437C65.4814 126.15 65.3814 125.947 65.1814 125.827C64.9814 125.7 64.678 125.637 64.2714 125.637H63.4414V127.317ZM69.9061 125.157L69.7461 125.757H71.1361L70.9861 125.157C70.8994 124.83 70.8094 124.484 70.7161 124.117C70.6294 123.75 70.5427 123.397 70.4561 123.057H70.4161C70.3361 123.404 70.2527 123.76 70.1661 124.127C70.0861 124.487 69.9994 124.83 69.9061 125.157ZM67.5461 128.457L69.5861 121.937H71.3561L73.3961 128.457H71.8361L71.4361 126.907H69.4461L69.0461 128.457H67.5461ZM74.9961 128.457V123.177H73.2061V121.937H78.2661V123.177H76.4761V128.457H74.9961ZM79.6327 128.457V121.937H81.1027V124.317H81.9427C82.436 124.317 82.8727 124.387 83.2527 124.527C83.6394 124.66 83.9427 124.874 84.1627 125.167C84.3827 125.46 84.4927 125.847 84.4927 126.327C84.4927 126.847 84.3794 127.264 84.1527 127.577C83.926 127.89 83.616 128.117 83.2227 128.257C82.836 128.39 82.4027 128.457 81.9227 128.457H79.6327ZM81.1027 127.287H81.8327C82.2194 127.287 82.5194 127.214 82.7327 127.067C82.946 126.92 83.0527 126.68 83.0527 126.347C83.0527 125.774 82.6427 125.487 81.8227 125.487H81.1027V127.287ZM88.3307 128.457V121.937H93.4207V128.457H91.9507V123.177H89.8007V128.457H88.3307ZM95.3116 128.457V121.937H97.5516C98.0316 121.937 98.4649 122.004 98.8516 122.137C99.2449 122.264 99.5583 122.48 99.7916 122.787C100.025 123.094 100.142 123.51 100.142 124.037C100.142 124.544 100.025 124.96 99.7916 125.287C99.5583 125.614 99.2483 125.857 98.8616 126.017C98.4749 126.17 98.0516 126.247 97.5916 126.247H96.7816V128.457H95.3116ZM96.7816 125.077H97.5016C98.3016 125.077 98.7016 124.73 98.7016 124.037C98.7016 123.697 98.5949 123.457 98.3816 123.317C98.1683 123.177 97.8616 123.107 97.4616 123.107H96.7816V125.077ZM104.269 128.577C103.682 128.577 103.165 128.44 102.719 128.167C102.279 127.894 101.932 127.504 101.679 126.997C101.432 126.484 101.309 125.874 101.309 125.167C101.309 124.454 101.432 123.85 101.679 123.357C101.932 122.857 102.279 122.477 102.719 122.217C103.165 121.95 103.682 121.817 104.269 121.817C104.855 121.817 105.369 121.95 105.809 122.217C106.255 122.477 106.602 122.857 106.849 123.357C107.102 123.857 107.229 124.46 107.229 125.167C107.229 125.874 107.102 126.484 106.849 126.997C106.602 127.504 106.255 127.894 105.809 128.167C105.369 128.44 104.855 128.577 104.269 128.577ZM104.269 127.307C104.715 127.307 105.069 127.114 105.329 126.727C105.589 126.34 105.719 125.82 105.719 125.167C105.719 124.514 105.589 124.004 105.329 123.637C105.069 123.27 104.715 123.087 104.269 123.087C103.822 123.087 103.469 123.27 103.209 123.637C102.949 124.004 102.819 124.514 102.819 125.167C102.819 125.82 102.949 126.34 103.209 126.727C103.469 127.114 103.822 127.307 104.269 127.307ZM110.578 125.157C110.491 125.59 110.395 125.98 110.288 126.327C110.181 126.667 110.051 126.964 109.898 127.217H112.198V123.177H110.938C110.891 123.437 110.851 123.667 110.818 123.867C110.785 124.06 110.748 124.257 110.708 124.457C110.675 124.657 110.631 124.89 110.578 125.157ZM109.468 128.457V130.337H108.158L108.028 128.137V127.217H108.328C108.428 127.184 108.528 127.09 108.628 126.937C108.735 126.784 108.841 126.55 108.948 126.237C109.055 125.917 109.158 125.494 109.258 124.967C109.331 124.58 109.395 124.24 109.448 123.947C109.501 123.647 109.555 123.34 109.608 123.027C109.668 122.714 109.731 122.35 109.798 121.937H113.668V127.217H114.468V128.137L114.338 130.337H113.028V128.457H109.468ZM116.527 128.577C116.34 128.577 116.177 128.564 116.037 128.537C115.904 128.517 115.79 128.487 115.697 128.447L115.957 127.167C116.017 127.187 116.08 127.207 116.147 127.227C116.22 127.24 116.32 127.247 116.447 127.247C116.754 127.247 116.964 127.147 117.077 126.947L117.167 126.757L114.957 121.937H116.517L117.277 123.837L117.827 125.397H117.867L118.377 123.837L119.067 121.937H120.547L118.537 126.977C118.337 127.47 118.077 127.86 117.757 128.147C117.444 128.434 117.034 128.577 116.527 128.577ZM121.614 128.457V121.937H123.084V124.497H123.804L124.654 122.997C124.907 122.55 125.164 122.244 125.424 122.077C125.691 121.904 126.007 121.817 126.374 121.817C126.467 121.817 126.564 121.824 126.664 121.837C126.764 121.85 126.847 121.874 126.914 121.907L126.674 123.237C126.614 123.217 126.557 123.207 126.504 123.207C126.457 123.2 126.417 123.197 126.384 123.197C126.237 123.197 126.111 123.237 126.004 123.317C125.904 123.397 125.787 123.554 125.654 123.787L124.954 125.007L127.084 128.457H125.534L123.804 125.687H123.084V128.457H121.614ZM129.455 128.457V123.177H127.665V121.937H132.725V123.177H130.935V128.457H129.455Z" fill="#FAF379"/>
<g clip-path="url(#clip0_1_350)">
<rect x="20" y="85.8862" width="102" height="30" rx="10" transform="rotate(-20 20 85.8862)" fill="#FFEF7D"/>
<path d="M39.9157 98.857L39.0128 96.3762C38.8841 96.4514 38.7531 96.5204 38.6198 96.5831C38.4843 96.6395 38.3163 96.7042 38.1158 96.7772C37.6334 96.9527 37.1906 97.0323 36.7873 97.0159C36.3903 96.9973 36.0386 96.8592 35.7321 96.6019C35.4296 96.336 35.1791 95.9305 34.9807 95.3855L34.4438 93.9102L35.8063 93.4142L36.3433 94.8896C36.4961 95.3093 36.6909 95.5718 36.9279 95.6771C37.1649 95.7824 37.4744 95.7655 37.8566 95.6264C38.0383 95.5603 38.1863 95.4993 38.3008 95.4435C38.4215 95.3853 38.5255 95.3298 38.6126 95.2768L37.6857 92.7302L39.0765 92.224L41.3064 98.3508L39.9157 98.857ZM43.0814 97.7048L40.8514 91.578L42.2233 91.0787L43.01 93.2399C43.1422 93.6033 43.2594 93.9934 43.3615 94.4103C43.4635 94.8272 43.5582 95.2042 43.6454 95.5414L43.683 95.5277L43.7953 93.9651L44.2907 90.3262L45.7566 89.7927L47.9865 95.9195L46.624 96.4154L45.8339 94.2447C45.7017 93.8813 45.5868 93.4975 45.4893 93.0931C45.3918 92.6888 45.294 92.3129 45.1959 91.9655L45.1583 91.9791L45.0426 93.5324L44.5473 97.1712L43.0814 97.7048ZM50.9539 94.8394L49.1481 89.8778L47.466 90.4901L47.0419 89.3248L51.7967 87.5942L52.2208 88.7594L50.5388 89.3716L52.3447 94.3332L50.9539 94.8394ZM55.2438 89.7663L55.2986 90.3848L56.6048 89.9094L56.2586 89.3969C56.0655 89.1196 55.8623 88.8246 55.6492 88.5119C55.4424 88.197 55.2401 87.8946 55.0423 87.6048L55.0048 87.6185C55.0481 87.9716 55.0918 88.3353 55.1358 88.7094C55.1837 89.0751 55.2197 89.4274 55.2438 89.7663ZM54.1547 93.6744L53.8417 86.8499L55.505 86.2445L59.6519 91.6736L58.186 92.2071L57.28 90.8874L55.41 91.568L55.5643 93.1614L54.1547 93.6744ZM61.1555 91.1264L59.3496 86.1648L57.6675 86.777L57.2434 85.6118L61.9983 83.8812L62.4224 85.0464L60.7403 85.6586L62.5462 90.6202L61.1555 91.1264ZM65.5125 89.5405L63.2825 83.4137L64.6639 82.911L65.4779 85.1474L66.2672 84.8601C66.7308 84.6914 67.1651 84.6078 67.57 84.6094C67.979 84.6025 68.337 84.6992 68.644 84.8996C68.9511 85.1 69.1867 85.4257 69.3509 85.8768C69.5287 86.3654 69.5647 86.7957 69.4589 87.1677C69.3531 87.5396 69.1393 87.8587 68.8176 88.1247C68.4998 88.3823 68.1154 88.5931 67.6644 88.7573L65.5125 89.5405ZM66.4937 87.9383L67.1796 87.6887C67.543 87.5564 67.7998 87.3849 67.9501 87.1741C68.1004 86.9633 68.1186 86.7013 68.0046 86.3881C67.8085 85.8493 67.3251 85.7202 66.5546 86.0006L65.878 86.2469L66.4937 87.9383ZM76.2172 85.772C75.6659 85.9727 75.1337 86.021 74.6204 85.9169C74.1135 85.8105 73.6543 85.5626 73.243 85.1732C72.8356 84.7751 72.5111 84.2441 72.2694 83.5801C72.0254 82.9098 71.935 82.3006 71.998 81.7527C72.0651 81.1962 72.2609 80.7205 72.5854 80.3257C72.9139 79.9224 73.3539 79.6204 73.9051 79.4197C74.4564 79.2191 74.9844 79.1688 75.4891 79.2689C75.9977 79.3604 76.4535 79.5989 76.8563 79.9844C77.2653 80.3676 77.5907 80.8913 77.8324 81.5553C78.0741 82.2194 78.1637 82.8359 78.1012 83.4049C78.0427 83.9654 77.8503 84.4504 77.5241 84.8601C77.2041 85.2674 76.7685 85.5714 76.2172 85.772ZM75.7828 84.5786C76.2026 84.4259 76.4685 84.1233 76.5805 83.6711C76.6926 83.2188 76.6369 82.6857 76.4135 82.0718C76.19 81.4578 75.8934 81.023 75.5237 80.7674C75.154 80.5118 74.7592 80.4604 74.3395 80.6131C73.9198 80.7659 73.6505 81.059 73.5315 81.4925C73.4126 81.926 73.4649 82.4497 73.6884 83.0636C73.9118 83.6775 74.2118 84.1217 74.5884 84.3961C74.9649 84.6706 75.3631 84.7314 75.7828 84.5786ZM81.3658 83.7704L79.56 78.8088L77.8779 79.421L77.4538 78.2558L82.2086 76.5252L82.6328 77.6904L80.9507 78.3026L82.7566 83.2642L81.3658 83.7704ZM87.3584 81.717C86.9574 81.8629 86.5399 81.9439 86.1059 81.96C85.6696 81.9698 85.2328 81.8805 84.7953 81.6921L85.1828 80.4762C85.4921 80.6049 85.7892 80.6706 86.0739 80.6733C86.3587 80.6761 86.6358 80.6285 86.9052 80.5304C87.2184 80.4164 87.4491 80.2509 87.5971 80.0338C87.7451 79.8168 87.7712 79.5767 87.6755 79.3136C87.582 79.0567 87.4227 78.9019 87.1977 78.849C86.9727 78.7961 86.6723 78.838 86.2964 78.9748L85.4789 79.2724L85.1061 78.2481L85.7357 78.019C86.1053 77.8844 86.3436 77.7303 86.4507 77.5565C86.5554 77.3765 86.5679 77.1769 86.4881 76.9576C86.4014 76.7196 86.2573 76.5769 86.0556 76.5297C85.8603 76.4802 85.6341 76.5022 85.3773 76.5957C85.1392 76.6823 84.9359 76.806 84.7674 76.9667C84.5966 77.1211 84.4383 77.3099 84.2925 77.5332L83.262 76.8654C83.6371 76.1613 84.2131 75.6679 84.9899 75.3852C85.6978 75.1275 86.2902 75.0787 86.7669 75.2386C87.2437 75.3985 87.5744 75.7321 87.7591 76.2396C87.8663 76.534 87.8974 76.8242 87.8525 77.1101C87.8053 77.3898 87.675 77.6359 87.4614 77.8484L87.4751 77.886C87.8117 77.8557 88.1259 77.9294 88.4175 78.107C88.7155 78.2824 88.9317 78.5548 89.0662 78.9244C89.219 79.3442 89.2413 79.7369 89.1332 80.1026C89.0228 80.462 88.8122 80.7799 88.5013 81.0562C88.1966 81.3303 87.8157 81.5505 87.3584 81.717ZM91.0897 80.2312L88.8598 74.1044L90.2411 73.6016L91.0551 75.8381L91.6659 75.6158C92.1295 75.447 92.5638 75.3635 92.9687 75.3651C93.3777 75.3581 93.7357 75.4548 94.0428 75.6552C94.3498 75.8556 94.5854 76.1813 94.7496 76.6324C94.9274 77.121 94.9603 77.5525 94.8482 77.9267C94.7424 78.2987 94.5317 78.6166 94.2163 78.8804C93.8985 79.1379 93.511 79.3499 93.0537 79.5164L91.0897 80.2312ZM92.0709 78.629L92.569 78.4477C92.9323 78.3154 93.1891 78.1439 93.3394 77.9331C93.496 77.7201 93.5173 77.4569 93.4033 77.1437C93.2072 76.6049 92.7239 76.4758 91.9533 76.7562L91.4553 76.9375L92.0709 78.629ZM96.2768 78.3432L94.0469 72.2164L95.4282 71.7137L97.6582 77.8405L96.2768 78.3432ZM99.4299 77.1956L97.1999 71.0688L99.2954 70.3061C99.7214 70.1511 100.121 70.059 100.493 70.0298C100.863 69.9944 101.189 70.0498 101.469 70.1961C101.749 70.3424 101.961 70.6129 102.105 71.0076C102.203 71.2769 102.228 71.5694 102.179 71.885C102.135 72.192 102.005 72.4381 101.788 72.6232L101.802 72.6608C102.145 72.6283 102.463 72.6934 102.756 72.8562C103.054 73.0105 103.276 73.2912 103.425 73.6984C103.577 74.1181 103.595 74.4983 103.478 74.839C103.361 75.1796 103.148 75.4807 102.838 75.7422C102.527 75.9975 102.149 76.206 101.704 76.3679L99.4299 77.1956ZM99.4739 73.0186L100.122 72.7827C100.461 72.6595 100.681 72.5048 100.783 72.3185C100.892 72.13 100.907 71.9261 100.827 71.7068C100.74 71.4688 100.6 71.3281 100.407 71.2849C100.214 71.2416 99.9547 71.2793 99.6289 71.3979L98.9712 71.6373L99.4739 73.0186ZM100.421 75.6216L101.201 75.3377C101.959 75.0618 102.238 74.6482 102.037 74.0969C101.939 73.8276 101.776 73.6707 101.547 73.6263C101.316 73.5757 101.009 73.6199 100.627 73.759L99.8467 74.0429L100.421 75.6216ZM105.448 75.0051L103.218 68.8783L104.6 68.3755L105.414 70.612L106.024 70.3897C106.488 70.2209 106.922 70.1374 107.327 70.139C107.736 70.132 108.094 70.2287 108.401 70.4291C108.708 70.6295 108.944 70.9552 109.108 71.4063C109.286 71.8949 109.319 72.3264 109.207 72.7006C109.101 73.0726 108.89 73.3905 108.575 73.6543C108.257 73.9118 107.87 74.1238 107.412 74.2903L105.448 75.0051ZM106.429 73.4029L106.928 73.2216C107.291 73.0894 107.548 72.9178 107.698 72.707C107.855 72.494 107.876 72.2308 107.762 71.9176C107.566 71.3788 107.082 71.2497 106.312 71.5302L105.814 71.7114L106.429 73.4029ZM110.635 73.1171L108.405 66.9903L109.787 66.4876L112.017 72.6144L110.635 73.1171Z" fill="#B5A3F8"/>
</g>
<g clip-path="url(#clip1_1_350)">
<rect x="10.2607" width="113" height="30" rx="10" transform="rotate(20 10.2607 0)" fill="#CFF3E9"/>
<path d="M16.7284 22.7012C16.1772 22.5005 15.7384 22.1954 15.4122 21.7858C15.0922 21.3785 14.8998 20.8934 14.835 20.3307C14.7788 19.7639 14.8715 19.1485 15.1132 18.4845C15.3572 17.8142 15.6795 17.2894 16.08 16.9102C16.4891 16.527 16.9448 16.2885 17.4472 16.1946C17.9581 16.0968 18.4892 16.1482 19.0405 16.3489C19.5918 16.5495 20.0286 16.8504 20.3508 17.2515C20.6816 17.6486 20.8774 18.1242 20.9382 18.6784C21.0052 19.2349 20.9179 19.8452 20.6762 20.5092C20.4345 21.1733 20.1069 21.7032 19.6932 22.0989C19.2882 22.4906 18.829 22.7386 18.3158 22.8426C17.8089 22.949 17.2797 22.9019 16.7284 22.7012ZM17.1628 21.5078C17.5825 21.6606 17.9807 21.5997 18.3573 21.3253C18.7338 21.0509 19.0338 20.6067 19.2573 19.9928C19.4807 19.3788 19.533 18.8551 19.4141 18.4217C19.2952 17.9882 19.0259 17.6951 18.6061 17.5423C18.1864 17.3895 17.7917 17.4409 17.422 17.6966C17.0522 17.9522 16.7556 18.387 16.5322 19.0009C16.3087 19.6149 16.253 20.148 16.3651 20.6002C16.4772 21.0525 16.7431 21.355 17.1628 21.5078ZM23.5468 25.1829C23.0331 24.9959 22.6034 24.7047 22.2578 24.3093C21.9122 23.914 21.6922 23.4366 21.5978 22.8772C21.512 22.3139 21.5933 21.6908 21.8419 21.008C22.0881 20.3314 22.4295 19.8029 22.8659 19.4226C23.3108 19.0383 23.7982 18.8006 24.3279 18.7096C24.8662 18.6147 25.3921 18.6607 25.9058 18.8477C26.3005 18.9913 26.6248 19.2016 26.8788 19.4785C27.135 19.7491 27.3277 20.0285 27.4569 20.3168L26.4025 20.9333C26.2983 20.7322 26.1745 20.5559 26.031 20.4043C25.896 20.2488 25.7189 20.1311 25.4997 20.0513C25.224 19.951 24.9418 19.937 24.653 20.0092C24.3705 20.0837 24.1067 20.2431 23.8617 20.4874C23.623 20.734 23.4284 21.064 23.2779 21.4774C23.0499 22.1039 23.0067 22.6416 23.1484 23.0904C23.2901 23.5393 23.5865 23.8458 24.0375 24.01C24.2881 24.1012 24.531 24.1258 24.7663 24.0837C25.0078 24.0439 25.2322 23.973 25.4396 23.8711L25.8579 25.0024C25.1253 25.4169 24.3549 25.477 23.5468 25.1829ZM27.9134 26.6445L29.7192 21.6829L28.0372 21.0707L28.4613 19.9055L33.2161 21.6361L32.792 22.8013L31.11 22.1891L29.3041 27.1507L27.9134 26.6445ZM34.4605 25.5157L34.105 26.0248L35.4111 26.5002L35.4754 25.885C35.5057 25.5484 35.5397 25.1919 35.5774 24.8154C35.6213 24.4412 35.6608 24.0796 35.6956 23.7304L35.658 23.7167C35.4643 24.0151 35.264 24.3218 35.0571 24.6367C34.8588 24.9476 34.66 25.2406 34.4605 25.5157ZM31.1142 27.8095L35.2611 22.3804L36.9244 22.9858L36.6114 29.8103L35.1455 29.2767L35.2997 27.6834L33.4297 27.0028L32.5237 28.3225L31.1142 27.8095ZM37.6097 30.1737L39.8397 24.0469L41.9352 24.8096C42.3612 24.9646 42.7263 25.1507 43.0303 25.3678C43.3367 25.5786 43.5502 25.8302 43.6709 26.1224C43.7916 26.4146 43.7801 26.7581 43.6364 27.1527C43.5384 27.4221 43.3694 27.6621 43.1296 27.8728C42.8983 28.0795 42.6402 28.1842 42.3554 28.187L42.3417 28.2246C42.6253 28.42 42.8272 28.6744 42.9473 28.9877C43.0759 29.297 43.0661 29.6553 42.9179 30.0625C42.7651 30.4822 42.5344 30.7848 42.2256 30.9704C41.9168 31.156 41.56 31.2496 41.155 31.2512C40.7523 31.2465 40.3286 31.1632 39.8838 31.0014L37.6097 30.1737ZM40.3284 27.0022L40.9768 27.2382C41.3151 27.3614 41.5833 27.3845 41.7816 27.3077C41.9861 27.2331 42.1282 27.0862 42.208 26.867C42.2947 26.6289 42.2779 26.4313 42.1578 26.274C42.0376 26.1168 41.8147 25.9789 41.4889 25.8603L40.8312 25.6209L40.3284 27.0022ZM39.381 29.6052L40.1609 29.8891C40.919 30.165 41.3983 30.0273 41.5989 29.476C41.697 29.2066 41.6726 28.9813 41.5257 28.8002C41.3811 28.6127 41.1177 28.4495 40.7355 28.3104L39.9556 28.0265L39.381 29.6052ZM43.6282 32.3642L45.8581 26.2374L47.2301 26.7368L46.4435 28.898C46.3112 29.2614 46.1502 29.6356 45.9604 30.0205C45.7706 30.4055 45.6008 30.7552 45.4509 31.0695L45.4885 31.0832L46.579 29.9583L49.2974 27.4892L50.7633 28.0228L48.5334 34.1495L47.1708 33.6536L47.9609 31.4829C48.0931 31.1196 48.2519 30.7517 48.4371 30.3792C48.6223 30.0068 48.789 29.656 48.9372 29.3268L48.8996 29.3131L47.8125 30.4286L45.0941 32.8978L43.6282 32.3642ZM51.5007 35.2296L53.3066 30.268L51.6246 29.6558L52.0487 28.4906L56.8035 30.2212L56.3794 31.3864L54.6974 30.7742L52.8915 35.7358L51.5007 35.2296ZM55.8578 36.8154L58.0877 30.6886L59.4691 31.1914L58.6551 33.4278L59.4444 33.7151C59.908 33.8839 60.2944 34.099 60.6036 34.3605C60.9213 34.6181 61.1334 34.9223 61.2398 35.2732C61.3462 35.6241 61.3173 36.025 61.1532 36.4761C60.9753 36.9647 60.7263 37.3175 60.4062 37.5344C60.086 37.7513 59.7172 37.8583 59.2997 37.8553C58.8907 37.8484 58.4607 37.7628 58.0097 37.5986L55.8578 36.8154ZM57.6393 36.2187L58.3253 36.4684C58.6886 36.6007 58.9956 36.6344 59.2462 36.5695C59.4969 36.5046 59.6792 36.3156 59.7932 36.0024C59.9893 35.4636 59.702 35.054 58.9315 34.7735L58.2549 34.5273L57.6393 36.2187ZM66.4804 40.8094C65.9291 40.6088 65.4903 40.3036 65.1641 39.894C64.8441 39.4867 64.6518 39.0016 64.587 38.4389C64.5308 37.8721 64.6235 37.2567 64.8652 36.5927C65.1092 35.9224 65.4314 35.3976 65.8319 35.0184C66.241 34.6352 66.6967 34.3967 67.1991 34.3029C67.7101 34.205 68.2412 34.2565 68.7925 34.4571C69.3437 34.6578 69.7805 34.9586 70.1028 35.3597C70.4336 35.7568 70.6294 36.2324 70.6902 36.7866C70.7572 37.3431 70.6699 37.9534 70.4282 38.6175C70.1865 39.2815 69.8588 39.8114 69.4452 40.2071C69.0401 40.5989 68.581 40.8468 68.0678 40.9509C67.5608 41.0572 67.0317 41.0101 66.4804 40.8094ZM66.9148 39.616C67.3345 39.7688 67.7326 39.708 68.1092 39.4335C68.4858 39.1591 68.7858 38.7149 69.0092 38.101C69.2327 37.4871 69.285 36.9634 69.1661 36.5299C69.0471 36.0964 68.7778 35.8033 68.3581 35.6505C67.9384 35.4977 67.5436 35.5492 67.1739 35.8048C66.8042 36.0604 66.5076 36.4952 66.2841 37.1092C66.0607 37.7231 66.005 38.2562 66.1171 38.7085C66.2291 39.1607 66.495 39.4633 66.9148 39.616ZM74.2285 45.5025L74.8715 43.7358L70.7838 42.248L73.0138 36.1213L74.3951 36.624L72.5893 41.5856L74.525 42.2902L76.3309 37.3286L77.7123 37.8314L75.9064 42.7929L76.6581 43.0665L76.3435 43.9311L75.4689 45.9539L74.2285 45.5025ZM77.3529 44.639L79.5828 38.5122L83.4168 39.9076L82.9927 41.0728L80.5401 40.1802L80.092 41.4112L82.1781 42.1705L81.7575 43.3263L79.6713 42.567L79.1583 43.9765L81.7049 44.9034L81.2808 46.0686L77.3529 44.639ZM82.8299 46.6325L85.0599 40.5057L86.4412 41.0084L85.5827 43.3671L87.697 44.1366L88.5555 41.778L89.9463 42.2842L87.7163 48.411L86.3255 47.9048L87.2558 45.3488L85.1415 44.5793L84.2112 47.1352L82.8299 46.6325ZM89.4907 49.0568L91.7207 42.93L93.102 43.4328L92.2264 45.8384L92.903 46.0846L94.2148 44.9658C94.6056 44.6327 94.9517 44.4323 95.253 44.3646C95.5629 44.293 95.8901 44.3198 96.2346 44.4452C96.3223 44.4772 96.4109 44.5165 96.5003 44.5632C96.5897 44.61 96.66 44.6604 96.7113 44.7145L96.0309 45.8822C95.9813 45.8429 95.9315 45.8141 95.8814 45.7959C95.8398 45.7737 95.8034 45.7568 95.7721 45.7454C95.6342 45.6953 95.5015 45.6895 95.3739 45.7282C95.2526 45.7692 95.0894 45.8765 94.8843 46.0502L93.8092 46.9572L94.6308 50.9276L93.1743 50.3975L92.496 47.2029L91.8194 46.9566L90.872 49.5596L89.4907 49.0568ZM96.3852 51.6939C96.2098 51.6301 96.0609 51.5617 95.9385 51.4887C95.82 51.4243 95.7238 51.3574 95.6497 51.2879L96.3319 50.174C96.3814 50.2133 96.4341 50.2538 96.4899 50.2953C96.5542 50.333 96.6459 50.3734 96.7649 50.4167C97.0531 50.5216 97.2847 50.4995 97.4596 50.3503L97.6091 50.2026L97.1809 44.9174L98.6468 45.4509L98.7112 47.4963L98.6945 49.1503L98.732 49.164L99.7448 47.8725L101.043 46.3231L102.434 46.8293L98.8212 50.8779C98.4646 51.273 98.0869 51.5506 97.6881 51.7105C97.2956 51.8727 96.8613 51.8672 96.3852 51.6939Z" fill="#496969"/>
</g>
<defs>
<clipPath id="clip0_1_350">
<rect x="20" y="85.8862" width="102" height="30" rx="10" transform="rotate(-20 20 85.8862)" fill="white"/>
</clipPath>
<clipPath id="clip1_1_350">
<rect x="10.2607" width="113" height="30" rx="10" transform="rotate(20 10.2607 0)" fill="white"/>
</clipPath>
</defs>
</svg>
