<svg width="16" height="17" viewBox="0 0 16 17" fill="none" xmlns="http://www.w3.org/2000/svg">
<path d="M8 2.16455V10.1646M8 10.1646L10.6667 7.49788M8 10.1646L5.33334 7.49788M7.33334 13.4979C7.33334 13.6747 7.40357 13.8443 7.5286 13.9693C7.65362 14.0943 7.82319 14.1646 8 14.1646C8.17681 14.1646 8.34638 14.0943 8.47141 13.9693C8.59643 13.8443 8.66667 13.6747 8.66667 13.4979C8.66667 13.3211 8.59643 13.1515 8.47141 13.0265C8.34638 12.9015 8.17681 12.8312 8 12.8312C7.82319 12.8312 7.65362 12.9015 7.5286 13.0265C7.40357 13.1515 7.33334 13.3211 7.33334 13.4979Z" stroke="#99BFD4" stroke-width="1.33333" stroke-linecap="round" stroke-linejoin="round"/>
</svg>
