<svg width="16" height="17" viewBox="0 0 16 17" fill="none" xmlns="http://www.w3.org/2000/svg">
<path d="M8 14.1646V6.16455M8 6.16455L5.33333 8.83122M8 6.16455L10.6667 8.83122M8.66667 2.83122C8.66667 2.65441 8.59643 2.48484 8.47141 2.35981C8.34638 2.23479 8.17681 2.16455 8 2.16455C7.82319 2.16455 7.65362 2.23479 7.5286 2.35981C7.40357 2.48484 7.33333 2.65441 7.33333 2.83122C7.33333 3.00803 7.40357 3.1776 7.5286 3.30262C7.65362 3.42765 7.82319 3.49788 8 3.49788C8.17681 3.49788 8.34638 3.42765 8.47141 3.30262C8.59643 3.1776 8.66667 3.00803 8.66667 2.83122Z" stroke="#99BFD4" stroke-width="1.33333" stroke-linecap="round" stroke-linejoin="round"/>
</svg>
