<svg width="21" height="19" viewBox="0 0 21 19" fill="none" xmlns="http://www.w3.org/2000/svg">
<path fill-rule="evenodd" clip-rule="evenodd" d="M18.8144 2.75H5.0018L3.82162 0.634597C3.68915 0.397154 3.43855 0.25 3.16666 0.25H1.66666C1.25244 0.25 0.916656 0.585786 0.916656 1C0.916656 1.41421 1.25244 1.75 1.66666 1.75H2.72626L3.89095 3.83765L6.57702 9.78088L6.57978 9.78695L6.81636 10.3104L4.11952 13.187C3.92561 13.3939 3.86491 13.6924 3.96264 13.9585C4.06037 14.2247 4.29983 14.413 4.58151 14.4452L7.03965 14.7261C10.1143 15.0775 13.219 15.0775 16.2937 14.7261L18.7518 14.4452C19.1634 14.3981 19.4589 14.0264 19.4118 13.6148C19.3648 13.2033 18.993 12.9078 18.5815 12.9549L16.1234 13.2358C13.1619 13.5742 10.1715 13.5742 7.20997 13.2358L6.23445 13.1243L8.21383 11.013C8.23297 10.9925 8.25076 10.9713 8.26718 10.9494L9.01999 11.0474C10.0749 11.1847 11.1413 11.2116 12.2018 11.1277C14.6752 10.9321 16.9677 9.75509 18.5681 7.85907L19.1462 7.17425C19.1656 7.15125 19.1836 7.12711 19.2001 7.10194L20.2775 5.46009C21.0412 4.29633 20.2063 2.75 18.8144 2.75ZM8.32293 9.44405C8.15752 9.42253 8.01488 9.31745 7.94524 9.16604L7.9439 9.16311L5.7234 4.25H18.8144C19.0132 4.25 19.1325 4.4709 19.0234 4.63716L17.9708 6.24123L17.4219 6.89152C16.0799 8.48139 14.1576 9.46832 12.0835 9.63236C11.1269 9.70802 10.1651 9.68374 9.21354 9.55993L8.32293 9.44405Z" fill="#99BFD4"/>
<path d="M6.16666 16C5.33823 16 4.66666 16.6716 4.66666 17.5C4.66666 18.3284 5.33823 19 6.16666 19C6.99508 19 7.66666 18.3284 7.66666 17.5C7.66666 16.6716 6.99508 16 6.16666 16Z" fill="#99BFD4"/>
<path d="M15.6667 17.5C15.6667 16.6716 16.3382 16 17.1667 16C17.9951 16 18.6667 16.6716 18.6667 17.5C18.6667 18.3284 17.9951 19 17.1667 19C16.3382 19 15.6667 18.3284 15.6667 17.5Z" fill="#99BFD4"/>
</svg>
