<svg width="18" height="16" viewBox="0 0 18 16" fill="none" xmlns="http://www.w3.org/2000/svg">
<path d="M9.5 14.25C9.08579 14.25 8.75 14.5858 8.75 15C8.75 15.4142 9.08579 15.75 9.5 15.75H15.5C16.4665 15.75 17.25 14.9665 17.25 14V2C17.25 1.0335 16.4665 0.25 15.5 0.25H9.5C9.08579 0.25 8.75 0.585788 8.75 1C8.75 1.41421 9.08579 1.75 9.5 1.75L15.5 1.75C15.6381 1.75 15.75 1.86193 15.75 2L15.75 14C15.75 14.1381 15.6381 14.25 15.5 14.25H9.5Z" fill="white"/>
<path fill-rule="evenodd" clip-rule="evenodd" d="M0.75 9.11522C0.75 9.80557 1.30964 10.3652 2 10.3652H6.6126C6.61912 10.4386 6.62595 10.512 6.63308 10.5854L6.68711 11.1413C6.76954 11.9894 7.67014 12.4973 8.43856 12.1291C10.0728 11.3459 11.6514 10.1706 12.9049 8.8618C13.3691 8.37712 13.3691 7.61278 12.9049 7.12811L12.8057 7.02454C11.5522 5.71578 10.0728 4.64403 8.43856 3.86084C7.67014 3.49258 6.76954 4.00049 6.68711 4.8486L6.63308 5.40448C6.62595 5.47787 6.61912 5.55128 6.6126 5.6247L2 5.6247C1.30964 5.6247 0.75 6.18435 0.75 6.8747V9.11522ZM8.05321 9.53069C8.01071 9.15373 7.69132 8.86522 7.30797 8.86522H2.25L2.25 7.1247H7.30797C7.70406 7.1247 8.03186 6.81671 8.05652 6.42139C8.07466 6.13051 8.09784 5.83987 8.12605 5.54959L8.14173 5.38824C9.44657 6.06069 10.6342 6.9409 11.6577 7.99496C11.2303 8.43505 10.7744 8.84484 10.2932 9.22186C9.62201 9.74782 8.90176 10.21 8.14173 10.6017L8.12605 10.4403C8.09784 10.15 8.07466 9.85941 8.05652 9.56853C8.05572 9.55582 8.05462 9.54321 8.05321 9.53069Z" fill="white"/>
</svg>
