<svg width="15" height="18" viewBox="0 0 15 18" fill="none" xmlns="http://www.w3.org/2000/svg">
<path fill-rule="evenodd" clip-rule="evenodd" d="M4.99708 1.74113C5.34617 1.12838 5.99716 0.750022 6.70237 0.750015C7.93775 0.750004 8.86593 1.87769 8.62838 3.09003L7.96297 6.48589C7.96012 6.50044 7.96165 6.50933 7.96365 6.51571C7.96612 6.52356 7.97119 6.53278 7.97954 6.54132C7.9879 6.54985 7.997 6.55512 8.0048 6.55775C8.01114 6.5599 8.01999 6.56162 8.0346 6.55908L11.4504 5.96581C13.3966 5.62779 15.1101 7.27892 14.8444 9.23629C14.8129 9.46807 14.7537 9.69524 14.6681 9.9129L12.964 14.2435C12.5467 15.3039 11.6806 16.1246 10.5992 16.4843C9.0544 16.9981 7.41522 17.1648 5.79856 16.9725L3.68151 16.7207C2.4173 16.5703 1.42383 15.5679 1.28477 14.3024L0.931628 11.0887C0.799213 9.88371 1.05103 8.66768 1.65111 7.61436L4.99708 1.74113Z" fill="#CECECE"/>
</svg>
