<svg width="15" height="15" viewBox="0 0 15 15" fill="none" xmlns="http://www.w3.org/2000/svg">
<path fill-rule="evenodd" clip-rule="evenodd" d="M9.46009 2.16842C9.37218 2.08051 9.25296 2.03113 9.12863 2.03113C9.00431 2.03113 8.88509 2.08051 8.79718 2.16842L3.05194 7.91366C2.99305 7.97255 2.95091 8.04607 2.92986 8.12666L2.30486 10.5194C2.2628 10.6804 2.30927 10.8517 2.42694 10.9693C2.54461 11.087 2.71585 11.1335 2.87686 11.0914L5.26962 10.4664C5.35021 10.4454 5.42372 10.4032 5.48262 10.3443L11.2279 4.5991C11.4109 4.41604 11.4109 4.11925 11.2279 3.93619L9.46009 2.16842ZM3.80478 8.48664L9.12863 3.16279L10.2335 4.26764L4.90964 9.5915L3.41416 9.98212L3.80478 8.48664Z" fill="#F8F8F8"/>
<path d="M2.49951 12.0311C2.24063 12.0311 2.03076 12.241 2.03076 12.4999C2.03076 12.7588 2.24063 12.9686 2.49951 12.9686H11.8745C12.1334 12.9686 12.3433 12.7588 12.3433 12.4999C12.3433 12.241 12.1334 12.0311 11.8745 12.0311H2.49951Z" fill="#F8F8F8"/>
</svg>
