<svg width="103" height="77" viewBox="0 0 103 77" fill="none" xmlns="http://www.w3.org/2000/svg">
<rect x="1.40323" y="0.653226" width="100.694" height="75.6936" rx="11.3468" stroke="#99BFD4" stroke-width="1.30645" stroke-dasharray="2.61 2.61"/>
<path fill-rule="evenodd" clip-rule="evenodd" d="M45.2179 13.3557H58.2824C58.9754 13.3557 59.64 13.6309 60.13 14.121C60.62 14.611 60.8953 15.2756 60.8953 15.9686V29.0331C60.8953 29.7261 60.62 30.3907 60.13 30.8807C59.64 31.3707 58.9754 31.646 58.2824 31.646H45.2179C44.5249 31.646 43.8603 31.3707 43.3703 30.8807C42.8803 30.3907 42.605 29.7261 42.605 29.0331V15.9686C42.605 15.2756 42.8803 14.611 43.3703 14.121C43.8603 13.6309 44.5249 13.3557 45.2179 13.3557Z" stroke="#99BFD4" stroke-width="1.30645" stroke-linecap="round" stroke-linejoin="round"/>
<path d="M60.8953 26.4202L56.9759 22.5008L53.0566 26.4006M58.2824 31.646L46.5243 19.8879L42.605 23.8073" stroke="#99BFD4" stroke-width="1.30645" stroke-linecap="round" stroke-linejoin="round"/>
<path d="M56.3226 19.2343C57.0441 19.2343 57.629 18.6494 57.629 17.9279C57.629 17.2063 57.0441 16.6214 56.3226 16.6214C55.601 16.6214 55.0161 17.2063 55.0161 17.9279C55.0161 18.6494 55.601 19.2343 56.3226 19.2343Z" fill="#99BFD4"/>
<path d="M13.9416 49.9697V47.6297H11.7576V46.8857H13.9416V44.5457H14.7216V46.8857H16.9056V47.6297H14.7216V49.9697H13.9416ZM18.3945 51.2177V43.3457H20.7345C21.2705 43.3457 21.7385 43.4097 22.1385 43.5377C22.5465 43.6657 22.8625 43.8697 23.0865 44.1497C23.3185 44.4297 23.4345 44.8017 23.4345 45.2657C23.4345 45.6577 23.3345 46.0137 23.1345 46.3337C22.9425 46.6457 22.6585 46.8617 22.2825 46.9817V47.0297C22.7545 47.1177 23.1385 47.3177 23.4345 47.6297C23.7385 47.9417 23.8905 48.3697 23.8905 48.9137C23.8905 49.4257 23.7625 49.8537 23.5065 50.1977C23.2585 50.5417 22.9105 50.7977 22.4625 50.9657C22.0145 51.1337 21.4945 51.2177 20.9025 51.2177H18.3945ZM19.3905 46.6937H20.5545C21.2265 46.6937 21.7105 46.5777 22.0065 46.3457C22.3025 46.1137 22.4505 45.7977 22.4505 45.3977C22.4505 44.9417 22.2945 44.6177 21.9825 44.4257C21.6785 44.2337 21.2185 44.1377 20.6025 44.1377H19.3905V46.6937ZM19.3905 50.4257H20.7585C21.4385 50.4257 21.9665 50.3017 22.3425 50.0537C22.7185 49.7977 22.9065 49.4057 22.9065 48.8777C22.9065 48.3897 22.7185 48.0337 22.3425 47.8097C21.9745 47.5777 21.4465 47.4617 20.7585 47.4617H19.3905V50.4257ZM25.3531 51.2177V45.3857H26.3371V47.5337H27.1651C27.8531 47.5337 28.4091 47.6777 28.8331 47.9657C29.2651 48.2537 29.4811 48.7177 29.4811 49.3577C29.4811 50.0057 29.2651 50.4777 28.8331 50.7737C28.4091 51.0697 27.8531 51.2177 27.1651 51.2177H25.3531ZM26.3371 50.4257H27.0571C28.0251 50.4257 28.5091 50.0697 28.5091 49.3577C28.5091 48.9897 28.3891 48.7217 28.1491 48.5537C27.9171 48.3857 27.5531 48.3017 27.0571 48.3017H26.3371V50.4257ZM30.4891 51.2177V45.3857H31.4731V51.2177H30.4891ZM34.0391 47.8697C34.0391 48.7177 34.1911 49.3777 34.4951 49.8497C34.7991 50.3137 35.2471 50.5457 35.8391 50.5457C36.2871 50.5457 36.6551 50.3417 36.9431 49.9337C37.2391 49.5177 37.3871 48.9817 37.3871 48.3257C37.3871 47.7257 37.2511 47.2497 36.9791 46.8977C36.7071 46.5377 36.3191 46.3577 35.8151 46.3577C35.5351 46.3577 35.2431 46.4337 34.9391 46.5857C34.6351 46.7377 34.3351 47.0137 34.0391 47.4137C34.0391 47.4857 34.0391 47.5617 34.0391 47.6417C34.0391 47.7137 34.0391 47.7897 34.0391 47.8697ZM35.8391 51.3617C34.9671 51.3617 34.2911 51.0417 33.8111 50.4017C33.3311 49.7617 33.0911 48.8537 33.0911 47.6777C33.0911 46.6937 33.1751 45.8977 33.3431 45.2897C33.5191 44.6817 33.7671 44.2137 34.0871 43.8857C34.4071 43.5497 34.7911 43.3017 35.2391 43.1417C35.6951 42.9817 36.1991 42.8617 36.7511 42.7817C37.0791 42.7337 37.3191 42.6897 37.4711 42.6497C37.6231 42.6017 37.7871 42.5377 37.9631 42.4577L38.1551 43.3577C38.0031 43.4617 37.8271 43.5417 37.6271 43.5977C37.4271 43.6457 37.2031 43.6897 36.9551 43.7297C36.4911 43.8017 36.0871 43.8817 35.7431 43.9697C35.3991 44.0497 35.1111 44.1817 34.8791 44.3657C34.6551 44.5417 34.4791 44.8057 34.3511 45.1577C34.2231 45.5017 34.1351 45.9737 34.0871 46.5737C34.3431 46.2537 34.6431 46.0137 34.9871 45.8537C35.3391 45.6857 35.6991 45.6017 36.0671 45.6017C36.7551 45.6017 37.3151 45.8417 37.7471 46.3217C38.1871 46.8017 38.4071 47.4697 38.4071 48.3257C38.4071 48.9417 38.2911 49.4777 38.0591 49.9337C37.8271 50.3897 37.5151 50.7417 37.1231 50.9897C36.7391 51.2377 36.3111 51.3617 35.8391 51.3617ZM39.9664 53.6777V45.3857H40.7824L40.8664 46.0577H40.9024C41.1664 45.8337 41.4544 45.6417 41.7664 45.4817C42.0864 45.3217 42.4184 45.2417 42.7624 45.2417C43.5144 45.2417 44.0864 45.5137 44.4784 46.0577C44.8704 46.5937 45.0664 47.3137 45.0664 48.2177C45.0664 48.8737 44.9464 49.4377 44.7064 49.9097C44.4744 50.3817 44.1664 50.7417 43.7824 50.9897C43.4064 51.2377 42.9944 51.3617 42.5464 51.3617C42.2744 51.3617 42.0024 51.3017 41.7304 51.1817C41.4664 51.0617 41.1984 50.8977 40.9264 50.6897L40.9504 51.7097V53.6777H39.9664ZM42.3784 50.5337C42.8584 50.5337 43.2544 50.3297 43.5664 49.9217C43.8864 49.5057 44.0464 48.9377 44.0464 48.2177C44.0464 47.5777 43.9264 47.0617 43.6864 46.6697C43.4544 46.2697 43.0624 46.0697 42.5104 46.0697C42.2624 46.0697 42.0104 46.1377 41.7544 46.2737C41.5064 46.4097 41.2384 46.6057 40.9504 46.8617V49.9217C41.2144 50.1457 41.4704 50.3057 41.7184 50.4017C41.9664 50.4897 42.1864 50.5337 42.3784 50.5337ZM47.8026 51.3617C47.3146 51.3617 46.9066 51.2177 46.5786 50.9297C46.2586 50.6337 46.0986 50.2257 46.0986 49.7057C46.0986 49.0657 46.3826 48.5777 46.9506 48.2417C47.5266 47.8977 48.4346 47.6577 49.6746 47.5217C49.6746 47.2737 49.6386 47.0377 49.5666 46.8137C49.5026 46.5897 49.3826 46.4097 49.2066 46.2737C49.0386 46.1297 48.7946 46.0577 48.4746 46.0577C48.1386 46.0577 47.8226 46.1217 47.5266 46.2497C47.2306 46.3777 46.9666 46.5217 46.7346 46.6817L46.3506 45.9977C46.6226 45.8217 46.9546 45.6537 47.3466 45.4937C47.7466 45.3257 48.1786 45.2417 48.6426 45.2417C49.3546 45.2417 49.8706 45.4617 50.1906 45.9017C50.5106 46.3337 50.6706 46.9137 50.6706 47.6417V51.2177H49.8546L49.7706 50.5217H49.7346C49.4626 50.7457 49.1626 50.9417 48.8346 51.1097C48.5146 51.2777 48.1706 51.3617 47.8026 51.3617ZM48.0906 50.5697C48.3706 50.5697 48.6346 50.5017 48.8826 50.3657C49.1306 50.2297 49.3946 50.0377 49.6746 49.7897V48.1697C48.7066 48.2897 48.0266 48.4697 47.6346 48.7097C47.2506 48.9497 47.0586 49.2577 47.0586 49.6337C47.0586 49.9617 47.1586 50.2017 47.3586 50.3537C47.5586 50.4977 47.8026 50.5697 48.0906 50.5697ZM53.6254 51.2177V46.1897H51.6694V45.3857H56.5654V46.1897H54.6094V51.2177H53.6254ZM57.861 51.2177V45.3857H58.845V47.5337H59.949C60.637 47.5337 61.193 47.6777 61.617 47.9657C62.049 48.2537 62.265 48.7177 62.265 49.3577C62.265 50.0057 62.049 50.4777 61.617 50.7737C61.193 51.0697 60.637 51.2177 59.949 51.2177H57.861ZM58.845 50.4257H59.841C60.809 50.4257 61.293 50.0697 61.293 49.3577C61.293 48.9897 61.173 48.7217 60.933 48.5537C60.701 48.3857 60.337 48.3017 59.841 48.3017H58.845V50.4257ZM69.0978 53.6777V51.8057L69.1218 50.9297C68.9618 51.0497 68.7818 51.1497 68.5818 51.2297C68.3898 51.3177 68.1778 51.3617 67.9458 51.3617C67.2818 51.3617 66.7458 51.0977 66.3378 50.5697C65.9378 50.0337 65.7378 49.2817 65.7378 48.3137C65.7378 47.6817 65.8378 47.1377 66.0378 46.6817C66.2458 46.2177 66.5178 45.8617 66.8538 45.6137C67.1898 45.3657 67.5538 45.2417 67.9458 45.2417C68.1778 45.2417 68.3858 45.2817 68.5698 45.3617C68.7618 45.4417 68.9458 45.5417 69.1218 45.6617L69.0978 44.7977V42.6737H70.0578V44.7977L70.0338 45.6857C70.2178 45.5497 70.4178 45.4417 70.6338 45.3617C70.8578 45.2817 71.0778 45.2417 71.2938 45.2417C71.9818 45.2417 72.5058 45.5137 72.8658 46.0577C73.2338 46.5937 73.4178 47.3137 73.4178 48.2177C73.4178 48.8737 73.3138 49.4377 73.1058 49.9097C72.9058 50.3817 72.6338 50.7417 72.2898 50.9897C71.9538 51.2377 71.5858 51.3617 71.1858 51.3617C71.0018 51.3617 70.8098 51.3217 70.6098 51.2417C70.4178 51.1697 70.2258 51.0697 70.0338 50.9417L70.0578 51.8057V53.6777H69.0978ZM68.1618 50.5337C68.3378 50.5337 68.5018 50.5017 68.6538 50.4377C68.8058 50.3737 68.9618 50.2657 69.1218 50.1137V46.4657C68.9618 46.3217 68.7938 46.2217 68.6178 46.1657C68.4498 46.1017 68.2818 46.0697 68.1138 46.0697C67.7298 46.0697 67.4058 46.2777 67.1418 46.6937C66.8858 47.1017 66.7578 47.6377 66.7578 48.3017C66.7578 48.9977 66.8818 49.5457 67.1298 49.9457C67.3778 50.3377 67.7218 50.5337 68.1618 50.5337ZM71.0178 50.5337C71.4258 50.5337 71.7578 50.3297 72.0138 49.9217C72.2698 49.5057 72.3978 48.9377 72.3978 48.2177C72.3978 47.5777 72.2898 47.0617 72.0738 46.6697C71.8658 46.2697 71.5258 46.0697 71.0538 46.0697C70.8938 46.0697 70.7298 46.0977 70.5618 46.1537C70.3938 46.2097 70.2178 46.3177 70.0338 46.4777V50.1377C70.2098 50.2897 70.3858 50.3937 70.5618 50.4497C70.7378 50.5057 70.8898 50.5337 71.0178 50.5337ZM77.2383 51.3617C76.7663 51.3617 76.3223 51.2417 75.9063 51.0017C75.4983 50.7617 75.1663 50.4137 74.9103 49.9577C74.6623 49.5017 74.5383 48.9537 74.5383 48.3137C74.5383 47.6577 74.6623 47.1017 74.9103 46.6457C75.1663 46.1897 75.4983 45.8417 75.9063 45.6017C76.3223 45.3617 76.7663 45.2417 77.2383 45.2417C77.7183 45.2417 78.1623 45.3617 78.5703 45.6017C78.9783 45.8417 79.3063 46.1897 79.5543 46.6457C79.8103 47.1017 79.9383 47.6577 79.9383 48.3137C79.9383 48.9537 79.8103 49.5017 79.5543 49.9577C79.3063 50.4137 78.9783 50.7617 78.5703 51.0017C78.1623 51.2417 77.7183 51.3617 77.2383 51.3617ZM77.2383 50.5457C77.7423 50.5457 78.1463 50.3417 78.4503 49.9337C78.7623 49.5177 78.9183 48.9777 78.9183 48.3137C78.9183 47.6417 78.7623 47.0977 78.4503 46.6817C78.1463 46.2657 77.7423 46.0577 77.2383 46.0577C76.7423 46.0577 76.3383 46.2657 76.0263 46.6817C75.7143 47.0977 75.5583 47.6417 75.5583 48.3137C75.5583 48.9777 75.7143 49.5177 76.0263 49.9337C76.3383 50.3417 76.7423 50.5457 77.2383 50.5457ZM82.559 51.2177V46.1897H80.603V45.3857H85.499V46.1897H83.543V51.2177H82.559ZM88.8985 51.3617C88.4265 51.3617 87.9825 51.2417 87.5665 51.0017C87.1585 50.7617 86.8265 50.4137 86.5705 49.9577C86.3225 49.5017 86.1985 48.9537 86.1985 48.3137C86.1985 47.6577 86.3225 47.1017 86.5705 46.6457C86.8265 46.1897 87.1585 45.8417 87.5665 45.6017C87.9825 45.3617 88.4265 45.2417 88.8985 45.2417C89.3785 45.2417 89.8225 45.3617 90.2305 45.6017C90.6385 45.8417 90.9665 46.1897 91.2145 46.6457C91.4705 47.1017 91.5985 47.6577 91.5985 48.3137C91.5985 48.9537 91.4705 49.5017 91.2145 49.9577C90.9665 50.4137 90.6385 50.7617 90.2305 51.0017C89.8225 51.2417 89.3785 51.3617 88.8985 51.3617ZM88.8985 50.5457C89.4025 50.5457 89.8065 50.3417 90.1105 49.9337C90.4225 49.5177 90.5785 48.9777 90.5785 48.3137C90.5785 47.6417 90.4225 47.0977 90.1105 46.6817C89.8065 46.2657 89.4025 46.0577 88.8985 46.0577C88.4025 46.0577 87.9985 46.2657 87.6865 46.6817C87.3745 47.0977 87.2185 47.6417 87.2185 48.3137C87.2185 48.9777 87.3745 49.5177 87.6865 49.9337C87.9985 50.3417 88.4025 50.5457 88.8985 50.5457ZM25.6988 65.2177V59.3857H26.6588V61.8097C26.6588 62.1217 26.6468 62.4657 26.6228 62.8417C26.6068 63.2097 26.5868 63.5817 26.5628 63.9577H26.6108C26.7228 63.7737 26.8508 63.5657 26.9948 63.3337C27.1468 63.0937 27.2748 62.8857 27.3788 62.7097L29.5868 59.3857H30.5108V65.2177H29.5508V62.7937C29.5508 62.4817 29.5588 62.1377 29.5748 61.7617C29.5988 61.3857 29.6228 61.0097 29.6468 60.6337H29.5988C29.4948 60.8097 29.3668 61.0177 29.2148 61.2577C29.0628 61.4977 28.9348 61.7057 28.8308 61.8817L26.6108 65.2177H25.6988ZM32.148 65.3617C32.044 65.3617 31.952 65.3537 31.872 65.3377C31.792 65.3217 31.708 65.2977 31.62 65.2657L31.812 64.3537C31.852 64.3617 31.892 64.3737 31.932 64.3897C31.972 64.3977 32.02 64.4017 32.076 64.4017C32.284 64.4017 32.452 64.3057 32.58 64.1137C32.708 63.9137 32.8 63.5977 32.856 63.1657C32.936 62.5337 33.012 61.9057 33.084 61.2817C33.156 60.6497 33.228 60.0177 33.3 59.3857H36.888V65.2177H35.892V60.1897H34.08C34.024 60.7257 33.96 61.2657 33.888 61.8097C33.824 62.3457 33.76 62.8817 33.696 63.4177C33.528 64.7137 33.012 65.3617 32.148 65.3617ZM38.859 65.2177V59.3857H39.819V61.8097C39.819 62.1217 39.807 62.4657 39.783 62.8417C39.767 63.2097 39.747 63.5817 39.723 63.9577H39.771C39.883 63.7737 40.011 63.5657 40.155 63.3337C40.307 63.0937 40.435 62.8857 40.539 62.7097L42.747 59.3857H43.671V65.2177H42.711V62.7937C42.711 62.4817 42.719 62.1377 42.735 61.7617C42.759 61.3857 42.783 61.0097 42.807 60.6337H42.759C42.655 60.8097 42.527 61.0177 42.375 61.2577C42.223 61.4977 42.095 61.7057 41.991 61.8817L39.771 65.2177H38.859ZM48.0465 65.2177V59.3857H50.2905C50.9305 59.3857 51.4465 59.5017 51.8385 59.7337C52.2385 59.9577 52.4385 60.3337 52.4385 60.8617C52.4385 61.1817 52.3505 61.4497 52.1745 61.6657C52.0065 61.8737 51.7705 62.0217 51.4665 62.1097V62.1457C51.7945 62.2257 52.0785 62.3737 52.3185 62.5897C52.5665 62.8057 52.6905 63.1257 52.6905 63.5497C52.6905 64.1257 52.4745 64.5497 52.0425 64.8217C51.6105 65.0857 51.0585 65.2177 50.3865 65.2177H48.0465ZM49.0185 61.8337H50.1225C50.6105 61.8337 50.9585 61.7577 51.1665 61.6057C51.3745 61.4457 51.4785 61.2297 51.4785 60.9577C51.4785 60.6857 51.3745 60.4737 51.1665 60.3217C50.9665 60.1697 50.6425 60.0937 50.1945 60.0937H49.0185V61.8337ZM49.0185 64.5097H50.2785C50.7585 64.5097 51.1145 64.4217 51.3465 64.2457C51.5865 64.0617 51.7065 63.8097 51.7065 63.4897C51.7065 63.1937 51.5825 62.9617 51.3345 62.7937C51.0865 62.6257 50.7145 62.5417 50.2185 62.5417H49.0185V64.5097ZM54.1403 65.2177V59.3857H55.1003V61.8097C55.1003 62.1217 55.0883 62.4657 55.0643 62.8417C55.0483 63.2097 55.0283 63.5817 55.0043 63.9577H55.0523C55.1643 63.7737 55.2923 63.5657 55.4363 63.3337C55.5883 63.0937 55.7163 62.8857 55.8203 62.7097L58.0283 59.3857H58.9523V65.2177H57.9923V62.7937C57.9923 62.4817 58.0003 62.1377 58.0163 61.7617C58.0403 61.3857 58.0643 61.0097 58.0883 60.6337H58.0403C57.9363 60.8097 57.8083 61.0177 57.6563 61.2577C57.5043 61.4977 57.3763 61.7057 57.2723 61.8817L55.0523 65.2177H54.1403ZM62.1374 62.1577C62.0734 62.7337 61.9854 63.2017 61.8734 63.5617C61.7694 63.9217 61.6494 64.2057 61.5134 64.4137H64.2254V60.1897H62.3654L62.1374 62.1577ZM61.1294 65.2177V67.2817H60.2774L60.1694 65.0377V64.4137H60.4574C60.5694 64.3497 60.6694 64.2497 60.7574 64.1137C60.8534 63.9697 60.9454 63.7337 61.0334 63.4057C61.1214 63.0697 61.2014 62.5897 61.2734 61.9657L61.5854 59.3857H65.2094V64.4137H66.0614V65.0377L65.9654 67.2817H65.1134V65.2177H61.1294ZM69.6761 65.3617C69.1561 65.3617 68.6841 65.2417 68.2601 65.0017C67.8361 64.7537 67.5001 64.4017 67.2521 63.9457C67.0041 63.4897 66.8801 62.9457 66.8801 62.3137C66.8801 61.6737 67.0041 61.1257 67.2521 60.6697C67.5081 60.2137 67.8361 59.8617 68.2361 59.6137C68.6361 59.3657 69.0561 59.2417 69.4961 59.2417C70.2401 59.2417 70.8121 59.4897 71.2121 59.9857C71.6201 60.4817 71.8241 61.1457 71.8241 61.9777C71.8241 62.0817 71.8201 62.1857 71.8121 62.2897C71.8121 62.3857 71.8041 62.4697 71.7881 62.5417H67.8521C67.8921 63.1577 68.0841 63.6497 68.4281 64.0177C68.7801 64.3857 69.2361 64.5697 69.7961 64.5697C70.0761 64.5697 70.3321 64.5297 70.5641 64.4497C70.8041 64.3617 71.0321 64.2497 71.2481 64.1137L71.5961 64.7617C71.3481 64.9217 71.0641 65.0617 70.7441 65.1817C70.4321 65.3017 70.0761 65.3617 69.6761 65.3617ZM67.8401 61.8337H70.9601C70.9601 61.2417 70.8321 60.7937 70.5761 60.4897C70.3281 60.1777 69.9761 60.0217 69.5201 60.0217C69.1121 60.0217 68.7441 60.1817 68.4161 60.5017C68.0961 60.8137 67.9041 61.2577 67.8401 61.8337ZM75.5333 65.3617C75.0613 65.3617 74.6173 65.2417 74.2013 65.0017C73.7933 64.7617 73.4613 64.4137 73.2053 63.9577C72.9573 63.5017 72.8333 62.9537 72.8333 62.3137C72.8333 61.6577 72.9573 61.1017 73.2053 60.6457C73.4613 60.1897 73.7933 59.8417 74.2013 59.6017C74.6173 59.3617 75.0613 59.2417 75.5333 59.2417C76.0133 59.2417 76.4573 59.3617 76.8653 59.6017C77.2733 59.8417 77.6013 60.1897 77.8493 60.6457C78.1053 61.1017 78.2333 61.6577 78.2333 62.3137C78.2333 62.9537 78.1053 63.5017 77.8493 63.9577C77.6013 64.4137 77.2733 64.7617 76.8653 65.0017C76.4573 65.2417 76.0133 65.3617 75.5333 65.3617ZM75.5333 64.5457C76.0373 64.5457 76.4413 64.3417 76.7453 63.9337C77.0573 63.5177 77.2133 62.9777 77.2133 62.3137C77.2133 61.6417 77.0573 61.0977 76.7453 60.6817C76.4413 60.2657 76.0373 60.0577 75.5333 60.0577C75.0373 60.0577 74.6333 60.2657 74.3213 60.6817C74.0093 61.0977 73.8533 61.6417 73.8533 62.3137C73.8533 62.9777 74.0093 63.5177 74.3213 63.9337C74.6333 64.3417 75.0373 64.5457 75.5333 64.5457Z" fill="#99BFD4"/>
</svg>
