<svg width="15" height="20" viewBox="0 0 15 20" fill="none" xmlns="http://www.w3.org/2000/svg">
<path d="M7.49591 12.8405C7.08665 12.8405 6.74287 12.4967 6.74287 12.0956V3.85305L6.80835 2.63344L6.29268 3.23097L5.14674 4.45876C5.01577 4.6061 4.81933 4.67976 4.63106 4.67976C4.26273 4.67976 3.95987 4.40965 3.95987 4.02494C3.95987 3.82849 4.04172 3.68116 4.18087 3.54201L6.93113 0.89816C7.11939 0.701713 7.29947 0.63623 7.49591 0.63623C7.70055 0.63623 7.88062 0.701713 8.06889 0.89816L10.8191 3.54201C10.9583 3.68116 11.032 3.82849 11.032 4.02494C11.032 4.40965 10.7291 4.67976 10.3608 4.67976C10.1725 4.67976 9.98424 4.6061 9.85328 4.45876L8.69915 3.23097L8.19166 2.63344L8.25715 3.85305V12.0956C8.25715 12.4967 7.91336 12.8405 7.49591 12.8405ZM2.78937 19.3642C1.02135 19.3642 0.104599 18.4556 0.104599 16.7121V8.64963C0.104599 6.90616 1.02135 5.99759 2.78937 5.99759H5.02396V7.60191H2.8876C2.12637 7.60191 1.70892 7.99481 1.70892 8.78878V16.573C1.70892 17.367 2.12637 17.7599 2.8876 17.7599H12.1124C12.8655 17.7599 13.2911 17.367 13.2911 16.573V8.78878C13.2911 7.99481 12.8655 7.60191 12.1124 7.60191H9.99243V5.99759H12.2106C13.9787 5.99759 14.8954 6.90616 14.8954 8.64963V16.7121C14.8954 18.4556 13.9787 19.3642 12.2106 19.3642H2.78937Z" fill="#99BFD4"/>
</svg>
