<svg width="20" height="18" viewBox="0 0 20 18" fill="none" xmlns="http://www.w3.org/2000/svg">
<path d="M10.7927 0.746521C10.4395 0.137717 9.56028 0.137714 9.20702 0.746521L6.71913 5.03405C6.54462 5.3348 6.243 5.54003 5.89919 5.59196L1.23673 6.29617C0.453642 6.41444 0.178954 7.40317 0.788817 7.90843L4.26215 10.7861C4.58366 11.0524 4.73484 11.4726 4.65674 11.8827L3.74817 16.6541C3.60454 17.4084 4.39635 17.9944 5.07573 17.6367L9.46602 15.325C9.80018 15.1491 10.1996 15.1491 10.5337 15.325L14.924 17.6367C15.6034 17.9944 16.3952 17.4084 16.2516 16.6541L15.343 11.8827C15.2649 11.4726 15.4161 11.0524 15.7376 10.7861L19.2109 7.90843C19.8208 7.40317 19.5461 6.41444 18.763 6.29617L14.1006 5.59196C13.7567 5.54003 13.4551 5.3348 13.2806 5.03405L10.7927 0.746521Z" fill="#99BFD4"/>
</svg>
