<svg width="21" height="20" viewBox="0 0 21 20" fill="none" xmlns="http://www.w3.org/2000/svg">
<path d="M10.9358 1.74652C10.5825 1.13772 9.70335 1.13771 9.35008 1.74652L6.8622 6.03405C6.68769 6.3348 6.38606 6.54003 6.04225 6.59196L1.3798 7.29617C0.596708 7.41444 0.32202 8.40317 0.931884 8.90843L4.40522 11.7861C4.72673 12.0524 4.87791 12.4726 4.79981 12.8827L3.89123 17.6541C3.74761 18.4084 4.53941 18.9944 5.2188 18.6367L9.60909 16.325C9.94324 16.1491 10.3426 16.1491 10.6768 16.325L15.0671 18.6367C15.7465 18.9944 16.5383 18.4084 16.3946 17.6541L15.4861 12.8827C15.408 12.4726 15.5591 12.0524 15.8807 11.7861L19.354 8.90843C19.9639 8.40317 19.6892 7.41444 18.9061 7.29617L14.2436 6.59196C13.8998 6.54003 13.5982 6.3348 13.4237 6.03405L10.9358 1.74652Z" stroke="#99BFD4" stroke-width="0.916667" stroke-linejoin="round"/>
</svg>
