<svg width="12" height="8" viewBox="0 0 12 8" fill="none" xmlns="http://www.w3.org/2000/svg">
<path fill-rule="evenodd" clip-rule="evenodd" d="M11.1666 4.00002C11.1666 3.72388 10.9428 3.50002 10.6666 3.50002H1.33331C1.05717 3.50002 0.833313 3.72388 0.833313 4.00002C0.833313 4.27616 1.05717 4.50002 1.33331 4.50002H10.6666C10.9428 4.50002 11.1666 4.27616 11.1666 4.00002Z" fill="#99BFD4"/>
<path fill-rule="evenodd" clip-rule="evenodd" d="M11.1666 0.666687C11.1666 0.390545 10.9428 0.166687 10.6666 0.166687H1.33331C1.05717 0.166687 0.833313 0.390545 0.833313 0.666687C0.833313 0.942829 1.05717 1.16669 1.33331 1.16669H10.6666C10.9428 1.16669 11.1666 0.942829 11.1666 0.666687Z" fill="#99BFD4"/>
<path fill-rule="evenodd" clip-rule="evenodd" d="M5.83331 7.33335C5.83331 7.05721 5.60945 6.83335 5.33331 6.83335H1.33331C1.05717 6.83335 0.833313 7.05721 0.833313 7.33335C0.833313 7.6095 1.05717 7.83335 1.33331 7.83335H5.33331C5.60945 7.83335 5.83331 7.6095 5.83331 7.33335Z" fill="#99BFD4"/>
</svg>
